<?xml version="1.0" standalone="no"?>
<!DOCTYPE svg PUBLIC "-//W3C//DTD SVG 1.1//EN" "http://www.w3.org/Graphics/SVG/1.1/DTD/svg11.dtd" >
<svg xmlns="http://www.w3.org/2000/svg">
<metadata>Generated by IcoMoon</metadata>
<defs>
<font id="icomoon" horiz-adv-x="512">
<font-face units-per-em="512" ascent="480" descent="-32" />
<missing-glyph horiz-adv-x="512" />
<glyph unicode="&#x20;" d="" horiz-adv-x="256" />
<glyph unicode="&#xe602;" d="M224 160l96 64-96 64zM416 480h-320c-53.024 0-96-42.976-96-96v-320c0-53.024 42.976-96 96-96h320c53.024 0 96 42.976 96 96v320c0 53.024-42.976 96-96 96zM413.28 166.688c-1.728-21.312-17.888-48.512-40.544-52.448-72.416-5.6-158.368-4.928-233.44 0-23.424 2.944-38.816 31.168-40.544 52.448-3.648 44.736-3.648 70.208 0 114.944 1.728 21.28 17.504 49.344 40.544 51.904 74.208 6.24 160.576 4.896 233.44 0 26.112-0.96 38.816-27.808 40.544-49.12 3.616-44.736 3.616-72.992 0-117.728z" />
<glyph unicode="&#xe603;" d="M256 480c-141.376 0-256-114.624-256-256s114.624-256 256-256 256 114.624 256 256c0 141.408-114.624 256-256 256zM413.28 166.688c-1.728-21.312-17.888-48.512-40.544-52.448-72.416-5.6-158.368-4.928-233.44 0-23.424 2.944-38.816 31.168-40.544 52.448-3.648 44.736-3.648 70.208 0 114.944 1.728 21.28 17.504 49.344 40.544 51.904 74.208 6.24 160.576 4.896 233.44 0 26.112-0.96 38.816-27.808 40.544-49.12 3.616-44.736 3.616-72.992 0-117.728zM224 160l96 64-96 64z" />
<glyph unicode="&#xe604;" d="M442.752 399.264c-116.576 7.84-254.784 9.984-373.504 0-36.864-4.128-62.112-48.992-64.864-83.072-5.824-71.584-5.824-112.32 0-183.904 2.784-34.080 27.392-79.2 64.896-83.936 120.128-7.872 257.632-8.96 373.504 0 36.288 6.304 62.112 49.856 64.896 83.936 5.824 71.584 5.824 116.768 0 188.384-2.816 34.080-23.168 77.056-64.928 78.592zM192 133.44v183.52l160-91.776-160-91.744z" horiz-adv-x="515" />
<glyph unicode="&#xe605;" d="M416 480h-320c-53.024 0-96-42.976-96-96v-320c0-53.024 42.976-96 96-96h320c53.024 0 96 42.976 96 96v320c0 53.024-42.976 96-96 96zM58.88 224c0 27.84 6.144 54.272 17.088 78.112l94.016-250.912c-65.76 31.136-111.104 96.8-111.104 172.8zM256 32c-19.36 0-38.016 2.752-55.68 7.808l61.696 161.184 58.048-155.456c0.384-0.96 0.896-1.824 1.408-2.656-20.48-7.040-42.496-10.88-65.472-10.88zM283.104 314.016c11.872 0.608 22.56 1.824 22.56 1.824 10.656 1.248 9.376 16.416-1.248 15.84 0 0-31.936-2.432-52.544-2.432-19.36 0-51.904 2.432-51.904 2.432-10.592 0.576-11.84-15.232-1.248-15.84 0 0 10.048-1.216 20.672-1.792l30.72-81.984-47.104-126.048-67.808 208c11.872 0.608 22.56 1.824 22.56 1.824 10.624 1.248 9.376 16.416-1.248 15.84 0 0-31.936-2.432-52.544-2.432-3.68 0-8.064 0.096-12.672 0.224 35.264 52.096 95.84 86.528 164.704 86.528 51.328 0 98.048-19.136 133.12-50.4-0.864 0.064-1.664 0.16-2.56 0.16-19.392 0-33.12-16.416-33.12-34.080 0-15.84 9.376-29.216 19.36-45.056 7.52-12.8 12.864-19.872 12.864-43.584 0-16.416-6.464-35.52-14.976-62.080l-19.68-63.968-67.904 197.024zM355.072 58.080l60.224 169.536c11.232 27.392 14.976 49.28 14.976 68.768 0 7.072-0.448 13.632-1.312 19.744 15.392-27.36 24.16-58.752 24.16-92.128 0-70.848-39.424-132.672-98.048-165.92z" />
<glyph unicode="&#xe606;" d="M256 480c-141.376 0-256-114.624-256-256s114.624-256 256-256 256 114.624 256 256-114.624 256-256 256zM36.576 224c0 30.976 6.848 60.416 19.008 86.976l104.672-279.296c-73.216 34.624-123.68 107.744-123.68 192.32zM256 10.272c-21.536 0-42.304 3.072-61.984 8.704l65.824 186.336 67.424-179.968c0.448-1.056 0.992-2.048 1.568-2.976-22.752-7.808-47.264-12.096-72.832-12.096zM286.176 324.192c13.216 0.672 25.12 2.016 25.12 2.016 11.84 1.376 10.432 18.272-1.376 17.632 0 0-35.552-2.72-58.464-2.72-21.536 0-57.792 2.72-57.792 2.72-11.84 0.672-13.216-16.928-1.408-17.632 0 0 11.2-1.344 23.008-2.016l34.176-91.232-48.032-140.256-79.872 231.488c13.248 0.672 25.12 2.016 25.12 2.016 11.808 1.376 10.432 18.272-1.376 17.632 0 0-35.552-2.72-58.464-2.72-4.096 0-8.96 0.096-14.112 0.256 39.2 58.016 106.656 96.352 183.296 96.352 57.12 0 109.12-21.28 148.192-56.096-0.96 0.064-1.856 0.192-2.848 0.192-21.568 0-36.864-18.272-36.864-37.92 0-17.632 10.432-32.512 21.536-50.144 8.384-14.272 18.112-32.544 18.112-58.944 0-18.272-7.2-39.52-16.672-69.12l-21.92-71.2-79.36 229.696zM475.424 224c0-78.848-43.872-147.68-109.12-184.672l67.040 188.704c12.512 30.496 16.672 54.848 16.672 76.544 0 7.872-0.512 15.168-1.472 21.984 17.12-30.464 26.88-65.408 26.88-102.56z" />
<glyph unicode="&#xe607;" d="M256 480c-141.376 0-256-114.624-256-256s114.624-256 256-256 256 114.624 256 256-114.624 256-256 256zM36.576 224c0 30.976 6.848 60.416 19.008 86.976l104.672-279.296c-73.216 34.624-123.68 107.744-123.68 192.32zM256 10.272c-21.536 0-42.304 3.072-61.984 8.704l65.824 186.336 67.424-179.968c0.448-1.056 0.992-2.048 1.568-2.976-22.752-7.808-47.264-12.096-72.832-12.096zM286.176 324.192c13.216 0.672 25.12 2.016 25.12 2.016 11.84 1.376 10.432 18.272-1.376 17.632 0 0-35.552-2.72-58.464-2.72-21.536 0-57.792 2.72-57.792 2.72-11.84 0.672-13.216-16.928-1.408-17.632 0 0 11.2-1.344 23.008-2.016l34.176-91.232-48.032-140.256-79.872 231.488c13.248 0.672 25.12 2.016 25.12 2.016 11.808 1.376 10.432 18.272-1.376 17.632 0 0-35.552-2.72-58.464-2.72-4.096 0-8.96 0.096-14.112 0.256 39.2 58.016 106.656 96.352 183.296 96.352 57.12 0 109.12-21.28 148.192-56.096-0.96 0.064-1.856 0.192-2.848 0.192-21.568 0-36.864-18.272-36.864-37.92 0-17.632 10.432-32.512 21.536-50.144 8.384-14.272 18.112-32.544 18.112-58.944 0-18.272-7.2-39.52-16.672-69.12l-21.92-71.2-79.36 229.696zM475.424 224c0-78.848-43.872-147.68-109.12-184.672l67.040 188.704c12.512 30.496 16.672 54.848 16.672 76.544 0 7.872-0.512 15.168-1.472 21.984 17.12-30.464 26.88-65.408 26.88-102.56z" />
<glyph unicode="&#xe608;" d="M416 480h-320c-53.024 0-96-42.976-96-96v-320c0-53.024 42.976-96 96-96h320c53.024 0 96 42.976 96 96v320c0 53.024-42.976 96-96 96zM408.064 293.664c-17.184-96.704-113.088-178.592-141.92-197.28-28.864-18.688-55.168 7.488-64.736 27.296-10.912 22.592-43.648 145.056-52.224 155.2s-34.304-10.144-34.304-10.144l-12.48 16.352c0 0 52.256 62.368 92 70.208 42.144 8.288 42.080-64.736 52.224-105.248 9.824-39.2 16.384-61.632 24.96-61.632s24.96 21.856 42.88 55.36c17.984 33.536-0.768 63.168-35.872 42.112 14.080 84.192 146.624 104.448 129.472 7.776z" />
<glyph unicode="&#xe609;" d="M256 480c-141.376 0-256-114.624-256-256s114.624-256 256-256 256 114.624 256 256c0 141.408-114.624 256-256 256zM408.064 293.664c-17.184-96.704-113.088-178.592-141.92-197.28-28.864-18.688-55.168 7.488-64.736 27.296-10.912 22.592-43.648 145.056-52.224 155.2s-34.304-10.144-34.304-10.144l-12.48 16.352c0 0 52.256 62.368 92 70.208 42.144 8.288 42.080-64.736 52.224-105.248 9.824-39.2 16.384-61.632 24.96-61.632s24.96 21.856 42.88 55.36c17.984 33.536-0.768 63.168-35.872 42.112 14.080 84.192 146.624 104.448 129.472 7.776z" />
<glyph unicode="&#xe60a;" d="M288.574 329.802c57.476 34.492 88.163-14.023 58.733-68.952-29.366-54.898-56.187-90.679-70.241-90.679-14.023 0-24.808 36.724-40.875 100.928-16.601 66.374-16.507 185.916-85.553 172.364-65.085-12.797-150.638-114.951-150.638-114.951l20.437-26.788c0 0 42.132 33.202 56.187 16.601s67.663-217.138 85.553-254.113c15.626-32.448 58.702-75.335 105.99-44.711 47.226 30.625 204.278 164.724 232.418 323.065 28.077 158.31-188.998 125.139-212.013-12.766z" horiz-adv-x="529" />
<glyph unicode="&#xe60b;" d="M416 480h-320c-53.024 0-96-42.976-96-96v-320c0-53.024 42.976-96 96-96h320c53.024 0 96 42.976 96 96v320c0 53.024-42.976 96-96 96zM383.36 281.472c0.128-2.72 0.192-5.44 0.192-8.16 0-83.296-63.392-179.328-179.328-179.328-35.584 0-68.704 10.432-96.608 28.32 4.928-0.576 9.952-0.896 15.040-0.896 29.536 0 56.704 10.080 78.272 26.976-27.584 0.512-50.848 18.752-58.88 43.776 3.872-0.736 7.776-1.12 11.872-1.12 5.76 0 11.328 0.768 16.608 2.208-28.832 5.792-50.56 31.264-50.56 61.792 0 0.256 0 0.512 0 0.8 8.512-4.736 18.208-7.552 28.544-7.904-16.896 11.296-28.032 30.592-28.032 52.448 0 11.552 3.104 22.368 8.512 31.68 31.072-38.144 77.536-63.232 129.92-65.856-1.088 4.608-1.632 9.44-1.632 14.368 0 34.784 28.224 63.008 63.040 63.008 18.112 0 34.496-7.648 46.016-19.904 14.368 2.848 27.872 8.096 40.032 15.296-4.704-14.72-14.688-27.072-27.712-34.88 12.736 1.504 24.896 4.928 36.192 9.92-8.448-12.608-19.168-23.712-31.488-32.544z" />
<glyph unicode="&#xe60c;" d="M256 480c-141.376 0-256-114.624-256-256s114.624-256 256-256 256 114.624 256 256c0 141.408-114.624 256-256 256zM383.36 281.472c0.128-2.72 0.192-5.44 0.192-8.16 0-83.296-63.392-179.328-179.328-179.328-35.584 0-68.704 10.432-96.608 28.32 4.928-0.576 9.952-0.896 15.040-0.896 29.536 0 56.704 10.080 78.272 26.976-27.584 0.512-50.848 18.752-58.88 43.776 3.872-0.736 7.776-1.12 11.872-1.12 5.76 0 11.328 0.768 16.608 2.208-28.832 5.792-50.56 31.264-50.56 61.792 0 0.256 0 0.512 0 0.8 8.512-4.736 18.208-7.552 28.544-7.904-16.896 11.296-28.032 30.592-28.032 52.448 0 11.552 3.104 22.368 8.512 31.68 31.072-38.144 77.536-63.232 129.92-65.856-1.088 4.608-1.632 9.44-1.632 14.368 0 34.784 28.224 63.008 63.040 63.008 18.112 0 34.496-7.648 46.016-19.904 14.368 2.848 27.872 8.096 40.032 15.296-4.704-14.72-14.688-27.072-27.712-34.88 12.736 1.504 24.896 4.928 36.192 9.92-8.448-12.608-19.168-23.712-31.488-32.544z" />
<glyph unicode="&#xe60d;" d="M497.888 424.32c-20.288-12.032-42.784-20.768-66.72-25.504-19.168 20.448-46.464 33.184-76.672 33.184-58.016 0-105.056-47.040-105.056-105.024 0-8.224 0.928-16.256 2.72-23.936-87.296 4.384-164.704 46.208-216.512 109.76-9.056-15.488-14.208-33.536-14.208-52.8 0-36.448 18.56-68.608 46.72-87.424-17.216 0.576-33.408 5.312-47.584 13.184 0-0.448 0-0.864 0-1.312 0-50.88 36.224-93.344 84.256-103.008-8.8-2.4-18.080-3.68-27.68-3.68-6.784 0-13.344 0.672-19.776 1.888 13.376-41.728 52.16-72.096 98.112-72.96-35.936-28.16-81.248-44.96-130.464-44.96-8.48 0-16.832 0.512-25.056 1.472 46.496-29.792 101.696-47.2 161.024-47.2 193.216 0 298.88 160.064 298.88 298.88 0 4.544-0.096 9.088-0.32 13.6 20.576 14.752 38.4 33.248 52.48 54.304-18.848-8.352-39.072-14.016-60.32-16.544 21.696 12.992 38.336 33.6 46.176 58.080z" />
<glyph unicode="&#xe60e;" d="M416 480h-320c-53.024 0-96-42.976-96-96v-320c0-53.024 42.976-96 96-96h320c53.024 0 96 42.976 96 96v320c0 53.024-42.976 96-96 96zM351.968 243.2h-76.768l-0.032-70.24c0-17.824-0.224-28.096 1.664-33.152 1.888-5.024 6.56-10.24 11.68-13.248 6.816-4.096 14.56-6.112 23.296-6.112 15.552 0 24.736 2.048 40.128 12.16v-46.208c-13.12-6.176-24.544-9.76-35.2-12.256-10.624-2.496-22.112-3.744-34.496-3.744-14.048 0-22.336 1.76-33.12 5.312s-20 8.64-27.616 15.168c-7.648 6.56-12.896 13.568-15.872 20.96-2.944 7.392-4.416 18.112-4.416 32.16v107.712h-41.184v43.52c12.064 3.904 25.568 9.536 34.144 16.864 8.608 7.328 15.52 16.096 20.736 26.368 5.184 10.208 8.768 23.296 10.752 39.136h49.536v-76.8h76.768v-57.6z" />
<glyph unicode="&#xe60f;" d="M256 480c-141.376 0-256-114.624-256-256s114.624-256 256-256 256 114.624 256 256c0 141.408-114.624 256-256 256zM351.968 243.2h-76.768l-0.032-70.24c0-17.824-0.224-28.096 1.664-33.152 1.888-5.024 6.56-10.24 11.68-13.248 6.816-4.096 14.56-6.112 23.296-6.112 15.552 0 24.736 2.048 40.128 12.16v-46.208c-13.12-6.176-24.544-9.76-35.2-12.256-10.624-2.496-22.112-3.744-34.496-3.744-14.048 0-22.336 1.76-33.12 5.312s-20 8.64-27.616 15.168c-7.648 6.56-12.896 13.568-15.872 20.96-2.944 7.392-4.416 18.112-4.416 32.16v107.712h-41.184v43.52c12.064 3.904 25.568 9.536 34.144 16.864 8.608 7.328 15.52 16.096 20.736 26.368 5.184 10.208 8.768 23.296 10.752 39.136h49.536v-76.8h76.768v-57.6z" />
<glyph unicode="&#xe610;" d="M164.736 90.624c0-23.392 2.464-41.28 7.36-53.6 4.928-12.32 13.696-23.968 26.432-34.912 12.672-10.88 28.032-19.36 46.016-25.28 18.016-5.888 31.776-8.832 55.2-8.832 20.608 0 39.776 2.080 57.536 6.208 17.728 4.16 36.8 10.176 58.656 20.448v76.992c-25.632-16.864-40.96-20.288-66.88-20.288-14.56 0-27.488 3.392-38.848 10.208-8.544 5.024-16.352 13.728-19.488 22.080-3.168 8.416-2.784 25.536-2.784 55.264l0.064 117.088h127.968v96h-127.968v128h-82.56c-3.264-26.4-9.28-48.192-17.952-65.248-8.672-17.12-20.192-31.744-34.56-43.968-14.272-12.192-36.768-21.568-56.864-28.096v-86.688h68.704v-165.376z" />
<glyph unicode="&#xe611;" d="M352 229.056l-34.016-12-29.984 12v-62.016c0-59.968 43.072-103.040 96-103.040s96 43.072 96 96v64h-64v-64c0-17.632-14.368-32-32-32s-32 14.368-32 39.008v62.048zM128 64c52.928 0 96 43.072 96 96v128c0 17.632 14.368 32 32 32 17.6 0 32-14.336 32-24.96v-31.040l30.016-12 33.984 12v31.040c0 45.92-43.072 88.96-96 88.96s-96-43.040-96-96v-128c0-17.632-14.368-32-32-32s-32 14.368-32 32v64h-64v-64c0-52.928 43.072-96 96-96z" />
<glyph unicode="&#xe612;" d="M416 480h-320c-53.024 0-96-42.976-96-96v-320c0-53.024 42.976-96 96-96h320c53.024 0 96 42.976 96 96v320c0 53.024-42.976 96-96 96zM256 292.608c-12.608 0-22.88-10.272-22.88-22.88v-91.488c0-37.824-30.784-68.608-68.608-68.608s-68.608 30.784-68.608 68.608v45.76h45.728v-45.728c0-12.608 10.272-22.88 22.88-22.88s22.88 10.272 22.88 22.88v91.456c0 37.824 30.784 68.608 68.608 68.608s68.608-30.784 68.608-63.616v-22.176l-29.312-8.544-16.448 8.576v22.176c0 7.584-10.272 17.856-22.848 17.856zM416.064 178.272c0-37.824-30.784-68.608-68.608-68.608s-68.608 30.784-68.608 73.632v44.288l16.448-8.576 29.312 8.576v-44.32c0-17.6 10.272-27.872 22.88-27.872s22.88 10.272 22.88 22.88v45.728h45.728v-45.728z" />
<glyph unicode="&#xe613;" d="M256 480c-141.376 0-256-114.624-256-256s114.624-256 256-256 256 114.624 256 256c0 141.408-114.624 256-256 256zM256 292.608c-12.608 0-22.88-10.272-22.88-22.88v-91.488c0-37.824-30.784-68.608-68.608-68.608s-68.608 30.784-68.608 68.608v45.76h45.728v-45.728c0-12.608 10.272-22.88 22.88-22.88s22.88 10.272 22.88 22.88v91.456c0 37.824 30.784 68.608 68.608 68.608s68.608-30.784 68.608-63.616v-22.176l-29.312-8.544-16.448 8.576v22.176c0 7.584-10.272 17.856-22.848 17.856zM416.064 178.272c0-37.824-30.784-68.608-68.608-68.608s-68.608 30.784-68.608 73.632v44.288l16.448-8.576 29.312 8.576v-44.32c0-17.6 10.272-27.872 22.88-27.872s22.88 10.272 22.88 22.88v45.728h45.728v-45.728z" />
<glyph unicode="&#xe614;" d="M362.528 204.512c-41.888 21.76-89.152 33.28-136.64 33.28-26.496 0-52.864-3.52-78.304-10.464-8.192-2.24-13.024-16.224-10.784-24.416s10.688-13.024 18.912-10.784c22.784 6.208 46.432 9.376 70.176 9.376 43.2 0 84.384-10.048 122.464-29.824 2.272-1.184 4.672-1.728 7.072-1.728 5.568 0 10.912 8.576 13.664 13.824 3.904 7.52 0.96 16.832-6.56 20.736zM416 480h-320c-53.024 0-96-42.976-96-96v-320c0-53.024 42.976-96 96-96h320c53.024 0 96 42.976 96 96v320c0 53.024-42.976 96-96 96zM256 32c-106.048 0-192 85.952-192 192s85.952 192 192 192 192-85.952 192-192c0-106.048-85.952-192-192-192zM225.856 314.72c-29.504 0-58.88-3.584-87.392-10.656-9.44-2.336-15.168-13.728-12.832-23.136s11.872-15.168 21.312-12.832c25.728 6.368 52.288 9.6 78.944 9.6 51.136 0 100.128-11.488 145.6-34.176 2.528-1.248 5.184-1.856 7.84-1.856 6.464 0 12.672 5.408 15.776 11.584 4.32 8.672 0.8 19.264-7.904 23.584-50.432 25.152-104.704 37.888-161.344 37.888zM225.856 165.888c-23.776 0-47.264-3.552-69.824-10.496-6.976-2.144-10.848-16.928-8.704-23.872 2.144-6.976 9.536-10.88 16.512-8.704 20 6.208 40.896 9.344 62.016 9.344 35.264 0 70.176-8.96 100.928-25.888 2.016-1.12 4.192-1.632 6.368-1.632 4.672 0 9.184 2.464 11.552 6.848 3.52 6.368 1.216 21.792-5.184 25.312-34.624 19.008-73.952 29.088-113.664 29.088z" />
<glyph unicode="&#xe615;" d="M225.856 314.72c-29.504 0-58.88-3.584-87.392-10.656-9.44-2.336-15.168-13.728-12.832-23.136s11.872-15.168 21.312-12.832c25.728 6.368 52.288 9.6 78.944 9.6 51.136 0 100.128-11.488 145.6-34.176 2.528-1.248 5.184-1.856 7.84-1.856 6.464 0 12.672 5.408 15.776 11.584 4.32 8.672 0.8 19.264-7.904 23.584-50.432 25.152-104.704 37.888-161.344 37.888zM225.856 165.888c-23.776 0-47.264-3.552-69.824-10.496-6.976-2.144-10.848-16.928-8.704-23.872 2.144-6.976 9.536-10.88 16.512-8.704 20 6.208 40.896 9.344 62.016 9.344 35.264 0 70.176-8.96 100.928-25.888 2.016-1.12 4.192-1.632 6.368-1.632 4.672 0 9.184 2.464 11.552 6.848 3.52 6.368 1.216 21.792-5.184 25.312-34.624 19.008-73.952 29.088-113.664 29.088zM362.528 204.512c-41.888 21.76-89.152 33.28-136.64 33.28-26.496 0-52.864-3.52-78.304-10.464-8.192-2.24-13.024-16.224-10.784-24.416s10.688-13.024 18.912-10.784c22.784 6.208 46.432 9.376 70.176 9.376 43.2 0 84.384-10.048 122.464-29.824 2.272-1.184 4.672-1.728 7.072-1.728 5.568 0 10.912 8.576 13.664 13.824 3.904 7.52 0.96 16.832-6.56 20.736zM256 480c-141.376 0-256-114.624-256-256s114.624-256 256-256 256 114.624 256 256c0 141.408-114.624 256-256 256zM256 32c-106.048 0-192 85.952-192 192s85.952 192 192 192 192-85.952 192-192c0-106.048-85.952-192-192-192z" />
<glyph unicode="&#xe616;" d="M256 480c-141.376 0-256-114.624-256-256s114.624-256 256-256 256 114.624 256 256c0 141.376-114.624 256-256 256zM374.272 73.92c-3.2-5.824-9.216-9.12-15.424-9.12-2.88 0-5.76 0.704-8.48 2.176-40.992 22.592-87.552 34.528-134.592 34.528-28.192 0-56.032-4.192-82.688-12.448-9.28-2.88-19.136 2.336-21.984 11.616-2.88 9.28 2.304 28.96 11.616 31.84 30.048 9.28 61.376 14.016 93.088 14.016 52.96 0 105.376-13.44 151.552-38.88 8.512-4.672 11.616-25.216 6.912-33.728zM406.784 170.368c-3.648-7.040-10.816-18.464-18.24-18.464-3.2 0-6.432 0.736-9.44 2.336-50.784 26.368-105.728 39.744-163.296 39.744-31.712 0-63.2-4.192-93.6-12.512-10.976-2.976-22.24 3.456-25.216 14.4-2.944 10.944 3.488 29.6 14.432 32.576 33.92 9.248 69.056 13.952 104.384 13.952 63.328 0 126.336-15.36 182.208-44.384 10.048-5.216 13.984-17.6 8.768-27.648zM441.408 263.040c-4.128-8.224-12.384-15.456-21.024-15.456-3.52 0-7.072 0.8-10.432 2.464-60.64 30.24-125.952 45.536-194.144 45.536-35.52 0-70.912-4.32-105.248-12.8-12.576-3.104-25.28 4.544-28.384 17.12-3.136 12.544 4.544 27.744 17.12 30.848 37.984 9.44 77.184 14.208 116.512 14.208 75.52 0 147.872-16.992 215.040-50.464 11.616-5.792 16.32-19.872 10.56-31.456z" />
<glyph unicode="&#xe617;" d="M416 480h-320c-53.024 0-96-42.976-96-96v-320c0-53.024 42.976-96 96-96h320c53.024 0 96 42.976 96 96v320c0 53.024-42.976 96-96 96zM325.408 72.608c-16.32 0-31.552 4.672-44.48 12.704-8.32-1.504-16.864-2.368-25.664-2.368-77.92 0-141.056 62.816-141.056 140.32 0 7.52 0.608 14.912 1.76 22.112-8.608 13.184-13.568 28.928-13.568 45.824 0 46.496 37.664 84.16 84.16 84.192 16.96 0 32.704-5.024 45.952-13.664 7.36 1.216 14.976 1.856 22.72 1.856 77.888 0 141.056-62.848 141.056-140.32 0-6.464-0.48-12.8-1.312-19.040 9.248-13.536 14.624-29.856 14.624-47.424 0-46.496-37.664-84.192-84.192-84.192zM237.568 250.272c-40.768 9.92-18.464 44.8 14.56 44.288 32.064-0.512 48.352-34.368 62.88-32.608 14.56 1.76 26.944 23.552 4.064 43.072-19.776 16.896-44.8 26.208-83.264 22.72-30.144-2.72-58.784-22.144-62.304-59.968-3.488-37.856 41.376-57.088 76.896-62.368 24.896-3.648 58.816-15.712 38.432-39.008-18.72-21.408-54.176-8.16-63.488-2.336-9.312 5.856-19.808 26.816-37.28 25.664-17.504-1.184-26.112-24.128-4.64-44.288 19.232-18.016 40.192-27.968 85.024-25.6 44.864 2.336 85.056 41.92 69.312 79.2s-59.424 41.344-100.192 51.232z" />
<glyph unicode="&#xe618;" d="M256 480c-141.376 0-256-114.624-256-256s114.624-256 256-256 256 114.624 256 256c0 141.408-114.624 256-256 256zM325.408 72.608c-16.32 0-31.552 4.672-44.48 12.704-8.32-1.504-16.864-2.368-25.664-2.368-77.92 0-141.056 62.816-141.056 140.32 0 7.52 0.608 14.912 1.76 22.112-8.608 13.184-13.568 28.928-13.568 45.824 0 46.496 37.664 84.16 84.16 84.192 16.96 0 32.704-5.024 45.952-13.664 7.36 1.216 14.976 1.856 22.72 1.856 77.888 0 141.056-62.848 141.056-140.32 0-6.464-0.48-12.8-1.312-19.040 9.248-13.536 14.624-29.856 14.624-47.424 0-46.496-37.664-84.192-84.192-84.192zM237.568 250.272c-40.768 9.92-18.464 44.8 14.56 44.288 32.064-0.512 48.352-34.368 62.88-32.608 14.56 1.76 26.944 23.552 4.064 43.072-19.776 16.896-44.8 26.208-83.264 22.72-30.144-2.72-58.784-22.144-62.304-59.968-3.488-37.856 41.376-57.088 76.896-62.368 24.896-3.648 58.816-15.712 38.432-39.008-18.72-21.408-54.176-8.16-63.488-2.336-9.312 5.856-19.808 26.816-37.28 25.664-17.504-1.184-26.112-24.128-4.64-44.288 19.232-18.016 40.192-27.968 85.024-25.6 44.864 2.336 85.056 41.92 69.312 79.2s-59.424 41.344-100.192 51.232z" />
<glyph unicode="&#xe619;" d="M489.856 222.752c0 129.152-105.28 233.888-235.104 233.888-12.896 0-25.568-1.056-37.856-3.072-22.080 14.4-48.352 22.752-76.608 22.752-77.536 0-140.288-62.816-140.288-140.32 0-28.192 8.288-54.4 22.592-76.384-1.92-12.032-2.912-24.32-2.912-36.864 0-129.184 105.216-233.888 235.072-233.888 14.656 0 28.928 1.44 42.784 3.936 21.536-13.376 46.944-21.152 74.144-21.152 77.536 0 140.32 62.816 140.32 140.32 0 29.28-8.96 56.512-24.352 79.040 1.408 10.4 2.208 20.992 2.208 31.744zM276.736 50.4c-74.72-3.904-109.664 12.64-141.696 42.688-35.776 33.568-21.408 71.84 7.744 73.792 29.12 1.952 46.592-33.024 62.144-42.72 15.52-9.696 74.592-31.776 105.792 3.904 33.984 38.816-22.592 58.912-64.064 64.992-59.2 8.768-133.952 40.768-128.128 103.904 5.824 63.040 53.568 95.424 103.84 99.968 64.064 5.824 105.792-9.696 138.784-37.856 38.144-32.544 17.504-68.896-6.784-71.808-24.224-2.912-51.392 53.504-104.8 54.336-55.040 0.864-92.224-57.28-24.288-73.792 67.968-16.512 140.736-23.296 166.976-85.408s-40.736-128.096-115.52-132z" />
<glyph unicode="&#xe61a;" d="M416 480h-320c-53.024 0-96-42.976-96-96v-320c0-53.024 42.976-96 96-96h320c53.024 0 96 42.976 96 96v320c0 53.024-42.976 96-96 96zM309.152 165.984c7.904 5.984 17.76 9.568 28.448 9.568 26.112 0 47.296-21.152 47.296-47.296 0-26.112-21.184-47.296-47.296-47.296s-47.264 21.152-47.264 47.296c0 0 0 0.032 0 0.032l-120.608 58.304c-7.392-4.768-16.16-7.584-25.6-7.584-26.112 0-47.296 21.184-47.296 47.296s21.184 47.296 47.296 47.296c11.136 0 21.344-3.872 29.44-10.304l116.736 56.384c0 0 0 0.032 0 0.032 0 26.112 21.184 47.296 47.264 47.296 26.112 0 47.296-21.152 47.296-47.296s-21.184-47.296-47.296-47.296c-10.688 0-20.512 3.584-28.448 9.568l-117.76-56.896c0-0.704-0.064-1.44-0.096-2.144l117.888-56.96z" />
<glyph unicode="&#xe61b;" d="M256 480c-141.376 0-256-114.624-256-256s114.624-256 256-256 256 114.624 256 256c0 141.408-114.624 256-256 256zM309.152 165.984c7.904 5.984 17.76 9.568 28.448 9.568 26.112 0 47.296-21.152 47.296-47.296 0-26.112-21.184-47.296-47.296-47.296s-47.264 21.152-47.264 47.296c0 0 0 0.032 0 0.032l-120.608 58.304c-7.392-4.768-16.16-7.584-25.6-7.584-26.112 0-47.296 21.184-47.296 47.296s21.184 47.296 47.296 47.296c11.136 0 21.344-3.872 29.44-10.304l116.736 56.384c0 0 0 0.032 0 0.032 0 26.112 21.184 47.296 47.264 47.296 26.112 0 47.296-21.152 47.296-47.296s-21.184-47.296-47.296-47.296c-10.688 0-20.512 3.584-28.448 9.568l-117.76-56.896c0-0.704-0.064-1.44-0.096-2.144l117.888-56.96z" />
<glyph unicode="&#xe61c;" d="M377.376 328.896c14.080-10.656 31.552-17.024 50.56-17.024 46.432 0 84.064 37.632 84.064 84.064s-37.632 84.064-84.064 84.064c-46.4 0-84.064-37.632-84.064-84.064 0-0.032 0-0.064 0-0.064l-207.488-100.32c-14.368 11.456-32.544 18.368-52.32 18.368-46.432 0-84.064-37.664-84.064-84.064s37.632-84.064 84.064-84.064c16.768 0 32.384 4.992 45.504 13.44l214.336-103.616c0-0.032 0-0.064 0-0.064 0-46.432 37.632-84.064 84.064-84.064s84.064 37.632 84.064 84.064c0 46.432-37.632 84.064-84.064 84.064-19.008 0-36.48-6.368-50.56-17.024l-209.6 101.312c0.096 1.28 0.16 2.528 0.192 3.808l209.376 101.184z" />
<glyph unicode="&#xe61d;" d="M416 480h-320c-53.024 0-96-42.976-96-96v-320c0-53.024 42.976-96 96-96h320c53.024 0 96 42.976 96 96v320c0 53.024-42.976 96-96 96zM138.080 64.768c-23.008 0-41.696 18.56-41.696 41.536 0 22.848 18.688 41.632 41.696 41.632 23.072 0 41.728-18.784 41.76-41.632 0-22.976-18.656-41.536-41.76-41.536zM242.848 64.384c0 39.264-15.264 76.16-42.912 103.776-27.648 27.712-64.416 43.008-103.488 43.008v60.032c113.952 0 206.72-92.768 206.72-206.816h-60.32zM349.376 64.416c0 139.584-113.44 253.152-252.864 253.152v60.032c172.608 0 313.088-140.544 313.088-313.184h-60.224z" />
<glyph unicode="&#xe61e;" d="M256 480c-141.376 0-256-114.624-256-256s114.624-256 256-256 256 114.624 256 256c0 141.408-114.624 256-256 256zM138.080 64.768c-23.008 0-41.696 18.56-41.696 41.536 0 22.848 18.688 41.632 41.696 41.632 23.072 0 41.728-18.784 41.76-41.632 0-22.976-18.656-41.536-41.76-41.536zM242.848 64.384c0 39.264-15.264 76.16-42.912 103.776-27.648 27.712-64.416 43.008-103.488 43.008v60.032c113.952 0 206.72-92.768 206.72-206.816h-60.32zM349.376 64.416c0 139.584-113.44 253.152-252.864 253.152v60.032c172.608 0 313.088-140.544 313.088-313.184h-60.224z" />
<glyph unicode="&#xe61f;" d="M0.192 480v-98.176c227.904 0 413.376-185.664 413.376-413.824h98.432c0 282.24-229.632 512-511.808 512zM239.424-32h98.56c0.032 186.432-151.616 338.080-337.92 338.080v-98.144c63.904 0 123.968-24.992 169.216-70.272 45.184-45.152 70.144-105.504 70.144-169.664zM68.16-31.36c37.728 0 68.256 30.336 68.256 67.904-0.032 37.344-30.528 68.032-68.256 68.032-37.6 0-68.16-30.656-68.16-68.032 0-37.568 30.56-67.904 68.16-67.904z" />
<glyph unicode="&#xe620;" d="M416 480h-320c-53.024 0-96-42.976-96-96v-320c0-53.024 42.976-96 96-96h320c53.024 0 96 42.976 96 96v320c0 53.024-42.976 96-96 96zM275.968 154.784c-18.72 1.44-26.56 10.72-41.216 19.648-8.064-42.304-17.92-82.88-47.104-104.032-9.024 63.904 13.216 111.904 23.552 162.88-17.6 29.664 2.112 89.28 39.232 74.592 45.664-18.080-39.584-110.176 17.664-121.664 59.744-12.032 84.16 103.68 47.104 141.312-53.568 54.336-155.84 1.248-143.264-76.544 3.072-19.008 22.688-24.768 7.84-51.040-34.272 7.584-44.512 34.624-43.2 70.656 2.112 58.976 52.992 100.256 104.032 105.984 64.544 7.232 125.088-23.68 133.472-84.384 9.44-68.512-29.12-142.752-98.112-137.408z" />
<glyph unicode="&#xe621;" d="M256 480c-141.376 0-256-114.624-256-256s114.624-256 256-256 256 114.624 256 256c0 141.408-114.624 256-256 256zM275.968 154.784c-18.72 1.44-26.56 10.72-41.216 19.648-8.064-42.304-17.92-82.88-47.104-104.032-9.024 63.904 13.216 111.904 23.552 162.88-17.6 29.664 2.112 89.28 39.232 74.592 45.664-18.080-39.584-110.176 17.664-121.664 59.744-12.032 84.16 103.68 47.104 141.312-53.568 54.336-155.84 1.248-143.264-76.544 3.072-19.008 22.688-24.768 7.84-51.040-34.272 7.584-44.512 34.624-43.2 70.656 2.112 58.976 52.992 100.256 104.032 105.984 64.544 7.232 125.088-23.68 133.472-84.384 9.44-68.512-29.12-142.752-98.112-137.408z" />
<glyph unicode="&#xe622;" d="M126.408 189.763c24.247 42.879-7.811 52.288-12.829 83.373-20.545 127.036 146.546 213.796 234.059 125.028 60.538-61.479 20.671-250.495-76.942-230.86-93.505 18.788 45.796 169.255-28.826 198.772-60.663 24.027-92.877-73.399-64.114-121.829-16.875-83.279-53.198-161.696-38.487-266.116 47.678 34.597 63.768 100.875 76.942 169.976 23.964-14.586 36.793-29.736 67.345-32.088 112.701-8.752 175.685 112.512 160.253 224.43-13.676 99.182-112.575 149.683-218.030 137.857-83.373-9.348-166.495-76.755-169.945-173.144-2.102-58.844 14.585-103.009 70.576-115.399z" horiz-adv-x="502" />
<glyph unicode="&#xe623;" d="M416 480h-320c-53.024 0-96-42.976-96-96v-320c0-53.024 42.976-96 96-96h320c53.024 0 96 42.976 96 96v320c0 53.024-42.976 96-96 96zM256 416c25.472 0 49.76-4.96 72-13.952v-133.888l-136.672 136.672c20.192 7.2 41.984 11.168 64.672 11.168zM64 224c0 72.544 40.192 135.648 99.552 168.32l60.288-60.32-154.24-154.208c-3.648 14.784-5.6 30.272-5.6 46.208zM160 57.696c-35.488 20.512-63.776 52.064-80.192 89.952l80.192 80.192v-170.144zM256 32c-25.472 0-49.76 4.96-72 13.984v82.016h238.304c-33.216-57.376-95.232-96-166.304-96zM434.016 152h-82.016v238.304c57.376-33.216 96-95.232 96-166.304 0-25.472-4.96-49.76-13.984-72z" />
<glyph unicode="&#xe624;" d="M256 480c-141.376 0-256-114.624-256-256s114.624-256 256-256 256 114.624 256 256c0 141.408-114.624 256-256 256zM256 416c25.472 0 49.76-4.96 72-13.952v-133.888l-136.672 136.672c20.192 7.2 41.984 11.168 64.672 11.168zM69.6 177.792c-3.648 14.784-5.6 30.272-5.6 46.208 0 72.544 40.192 135.648 99.552 168.32l60.288-60.32-154.24-154.208zM160 57.696c-35.488 20.512-63.776 52.064-80.192 89.952l80.192 80.192v-170.144zM256 32c-25.472 0-49.76 4.96-72 13.984v82.016h238.304c-33.216-57.376-95.232-96-166.304-96zM434.016 152h-82.016v238.304c57.376-33.216 96-95.232 96-166.304 0-25.472-4.96-49.76-13.984-72z" />
<glyph unicode="&#xe625;" d="M128 2.272v226.848l-106.944-106.912c21.92-50.528 59.648-92.576 106.944-119.936zM160-13.376c29.632-12 62.048-18.624 96-18.624 94.752 0 177.472 51.488 221.728 128h-317.728v-109.376zM213.12 368l-80.384 80.416c-79.136-43.552-132.736-127.712-132.736-224.416 0-21.248 2.592-41.888 7.488-61.632l205.632 205.632zM352 461.376c-29.664 12-62.048 18.624-96 18.624-30.272 0-59.296-5.28-86.24-14.912l182.24-182.208v178.496zM384 445.728v-317.728h109.376c12 29.664 18.624 62.048 18.624 96 0 94.752-51.488 177.472-128 221.728z" />
<glyph unicode="&#xe626;" d="M416 480h-320c-53.024 0-96-42.976-96-96v-320c0-53.024 42.976-96 96-96h320c53.024 0 96 42.976 96 96v320c0 53.024-42.976 96-96 96zM265.088 352.256c2.752 6.24 6.464 11.744 11.168 16.448 4.736 4.736 10.176 8.448 16.448 11.2 6.24 2.752 13.056 4.096 20.32 4.096 7.328 0 14.080-1.344 20.32-4.096 6.24-2.72 11.712-6.464 16.416-11.2 4.736-4.704 8.48-10.208 11.2-16.448 2.752-6.24 4.128-12.992 4.128-20.32s-1.376-14.080-4.128-20.32c-2.72-6.24-6.464-11.712-11.2-16.448-4.736-4.704-10.176-8.448-16.416-11.2-6.24-2.72-12.992-4.096-20.32-4.096-7.296 0-14.080 1.376-20.32 4.096-6.24 2.752-11.712 6.464-16.448 11.2-4.704 4.736-8.416 10.208-11.168 16.448s-4.128 13.024-4.128 20.32c0 7.328 1.376 14.080 4.128 20.32zM184.032 360.512c7.776 7.744 17.12 11.616 28.064 11.616 11.264 0 20.8-3.872 28.544-11.616 7.776-7.776 11.648-17.152 11.648-28.128 0-11.264-3.904-20.768-11.68-28.544-7.712-7.744-17.248-11.616-28.512-11.616-10.912 0-20.288 3.872-28.064 11.648s-11.68 17.28-11.68 28.544c0.032 10.944 3.904 20.32 11.68 28.096zM114.176 353.184c5.92 5.952 13.152 8.928 21.664 8.928 8.544 0 15.68-2.976 21.472-8.928 5.76-5.92 8.64-12.992 8.64-21.216 0-8.544-2.912-15.744-8.64-21.696-5.792-5.952-12.928-8.928-21.472-8.928-8.512 0-15.744 2.976-21.664 8.896-5.952 5.952-8.928 13.184-8.928 21.696 0 8.224 2.976 15.328 8.928 21.248zM384 64h-140.64v64h-88.096v64h-52.576v58.208c0 10.336-0.256 19.104 6.912 26.24 7.136 7.136 15.904 10.72 26.24 10.72 8.832 0 16.48-2.656 22.848-8 6.4-5.344 10.624-11.936 12.8-19.872 5.152 6.080 11.264 10.784 18.24 14.176 7.008 3.328 14.464 5.024 22.368 5.024 12.48 0 23.36-3.744 32.672-11.2 9.28-7.456 15.456-16.832 18.496-28.064 6.4 6.080 13.824 10.976 22.4 14.592 8.512 3.648 17.664 5.472 27.392 5.472 9.76 0 18.976-1.824 27.648-5.472 8.64-3.648 16.192-8.672 22.592-15.072s11.488-13.92 15.264-22.592c3.808-8.64 5.44-17.856 5.44-27.616v-124.544z" />
<glyph unicode="&#xe627;" d="M256 480c-141.376 0-256-114.624-256-256s114.624-256 256-256 256 114.624 256 256c0 141.408-114.624 256-256 256zM265.088 352.256c2.752 6.24 6.464 11.744 11.168 16.448 4.736 4.736 10.176 8.448 16.448 11.2 6.24 2.752 13.056 4.096 20.32 4.096 7.328 0 14.080-1.344 20.32-4.096 6.24-2.72 11.712-6.464 16.416-11.2 4.736-4.704 8.48-10.208 11.2-16.448 2.752-6.24 4.128-12.992 4.128-20.32s-1.376-14.080-4.128-20.32c-2.72-6.24-6.464-11.712-11.2-16.448-4.736-4.704-10.176-8.448-16.416-11.2-6.24-2.72-12.992-4.096-20.32-4.096-7.296 0-14.080 1.376-20.32 4.096-6.24 2.752-11.712 6.464-16.448 11.2-4.704 4.736-8.416 10.208-11.168 16.448s-4.128 13.024-4.128 20.32c0 7.328 1.376 14.080 4.128 20.32zM184.032 360.512c7.776 7.744 17.12 11.616 28.064 11.616 11.264 0 20.8-3.872 28.544-11.616 7.776-7.776 11.648-17.152 11.648-28.128 0-11.264-3.904-20.768-11.68-28.544-7.712-7.744-17.248-11.616-28.512-11.616-10.912 0-20.288 3.872-28.064 11.648s-11.68 17.28-11.68 28.544c0.032 10.944 3.904 20.32 11.68 28.096zM114.176 353.184c5.92 5.952 13.152 8.928 21.664 8.928 8.544 0 15.68-2.976 21.472-8.928 5.76-5.92 8.64-12.992 8.64-21.216 0-8.544-2.912-15.744-8.64-21.696-5.792-5.952-12.928-8.928-21.472-8.928-8.512 0-15.744 2.976-21.664 8.896-5.952 5.952-8.928 13.184-8.928 21.696 0 8.224 2.976 15.328 8.928 21.248zM384 64h-140.64v64h-88.096v64h-52.576v58.208c0 10.336-0.256 19.104 6.912 26.24 7.136 7.136 15.904 10.72 26.24 10.72 8.832 0 16.48-2.656 22.848-8 6.4-5.344 10.624-11.936 12.8-19.872 5.152 6.080 11.264 10.784 18.24 14.176 7.008 3.328 14.464 5.024 22.368 5.024 12.48 0 23.36-3.744 32.672-11.2 9.28-7.456 15.456-16.832 18.496-28.064 6.4 6.080 13.824 10.976 22.4 14.592 8.512 3.648 17.664 5.472 27.392 5.472 9.76 0 18.976-1.824 27.648-5.472 8.64-3.648 16.192-8.672 22.592-15.072s11.488-13.92 15.264-22.592c3.808-8.64 5.44-17.856 5.44-27.616v-124.544z" />
<glyph unicode="&#xe628;" d="M252.736 351.776c12.416 12.416 18.656 27.648 18.656 45.664 0 17.536-6.24 32.544-18.656 44.96-12.384 12.384-27.68 18.592-45.696 18.592-17.472 0-32.48-6.208-44.896-18.592-12.416-12.448-18.656-27.424-18.656-44.96 0-18.016 6.24-33.248 18.656-45.664 12.448-12.416 27.424-18.624 44.896-18.624 18.016 0 33.312 6.208 45.696 18.624zM309.728 337.888c7.552-7.552 16.32-13.504 26.304-17.888 9.984-4.352 20.864-6.56 32.512-6.56 11.712 0 22.528 2.208 32.512 6.56 9.984 4.416 18.72 10.336 26.304 17.888 7.552 7.552 13.536 16.32 17.92 26.304s6.592 20.8 6.592 32.544c0 11.68-2.176 22.496-6.592 32.512-4.352 9.984-10.368 18.752-17.92 26.304s-16.288 13.536-26.304 17.888c-9.952 4.384-20.8 6.56-32.512 6.56-11.648 0-22.528-2.176-32.512-6.56-9.984-4.352-18.752-10.336-26.304-17.888-7.52-7.584-13.472-16.352-17.888-26.336-4.384-9.984-6.592-20.8-6.592-32.512s2.208-22.528 6.592-32.544c4.416-9.952 10.368-18.72 17.888-26.272zM85.024 347.744c13.664 0 25.088 4.736 34.368 14.24 9.248 9.536 13.856 21.088 13.856 34.752 0 13.152-4.64 24.48-13.856 33.952-9.28 9.504-20.704 14.272-34.368 14.272-13.6 0-25.216-4.768-34.656-14.272-9.536-9.472-14.272-20.8-14.272-33.952 0-13.664 4.768-25.216 14.272-34.72 9.472-9.504 21.056-14.272 34.656-14.272zM448.96 247.648c-10.208 10.24-22.304 18.272-36.16 24.128-13.92 5.856-28.672 8.768-44.256 8.768s-30.208-2.912-43.808-8.768c-13.664-5.856-25.568-13.664-35.808-23.392-4.864 18.016-14.752 32.96-29.6 44.928-14.88 11.936-32.288 17.92-52.288 17.92-12.672 0-24.576-2.688-35.808-8.032-11.136-5.408-20.928-12.928-29.152-22.656-3.488 12.64-10.24 23.232-20.48 31.776-10.208 8.544-22.4 12.768-36.576 12.768-16.544 0-30.56-5.728-41.984-17.152-11.456-11.424-11.040-25.472-11.040-42.016v-102.432h84.128v-83.872h140.96v-111.616h225.024v199.296c0 15.584-2.592 30.336-8.704 44.192-6.080 13.888-14.24 25.952-24.448 36.16z" />
<glyph unicode="&#xe629;" d="M416 480h-320c-53.024 0-96-42.976-96-96v-320c0-53.024 42.976-96 96-96h320c53.024 0 96 42.976 96 96v320c0 53.024-42.976 96-96 96zM192 100h-64v224h64v-224zM161.984 337.728c-16.576 0-29.984 13.44-29.984 30.016s13.44 30.016 29.984 30.016c16.576-0.032 30.016-13.472 30.016-30.016 0-16.576-13.44-30.016-30.016-30.016zM416 100h-64v138.496c0 16.224-4.64 27.584-24.576 27.584-33.056 0-39.424-27.584-39.424-27.584v-138.496h-64v224h64v-21.408c9.152 7.008 32 21.376 64 21.376 20.768 0 64-12.416 64-87.424v-136.544z" />
<glyph unicode="&#xe62a;" d="M256 480c-141.376 0-256-114.624-256-256s114.624-256 256-256 256 114.624 256 256c0 141.408-114.624 256-256 256zM192 100h-64v224h64v-224zM161.984 337.728c-16.576 0-29.984 13.44-29.984 30.016s13.44 30.016 29.984 30.016c16.576-0.032 30.016-13.472 30.016-30.016 0-16.576-13.44-30.016-30.016-30.016zM416 100h-64v138.496c0 16.224-4.64 27.584-24.576 27.584-33.056 0-39.424-27.584-39.424-27.584v-138.496h-64v224h64v-21.408c9.152 7.008 32 21.376 64 21.376 20.768 0 64-12.416 64-87.424v-136.544z" />
<glyph unicode="&#xe62b;" d="M33.024 320h94.976v-352h-94.976zM322.784 319.968c-34.784 0-52.128-16.576-66.784-27.808v27.84h-95.488v-352h95.488v221.6c0 0-3.488 44.128 49.408 44.128 31.872 0 46.592-18.144 46.592-44.128v-221.6h100.608v218.496c0 120-96.608 133.472-129.824 133.472zM32 400c0-26.51 21.49-48 48-48s48 21.49 48 48c0 26.51-21.49 48-48 48s-48-21.49-48-48z" />
<glyph unicode="&#xe62c;" d="M416 480h-320c-53.024 0-96-42.976-96-96v-320c0-53.024 42.976-96 96-96h320c53.024 0 96 42.976 96 96v320c0 53.024-42.976 96-96 96zM416 75.552c0-6.368-5.184-11.552-11.552-11.552h-296.896c-6.368 0-11.552 5.184-11.552 11.552v296.896c0 6.368 5.184 11.552 11.552 11.552h296.896c6.368 0 11.552-5.184 11.552-11.552v-296.896zM320 352h64v-64h-64zM192 224c0-35.346 28.654-64 64-64s64 28.654 64 64c0 35.346-28.654 64-64 64s-64-28.654-64-64zM351.2 224c0-52.512-42.72-95.2-95.2-95.2s-95.2 42.688-95.2 95.2c0 6.816 0.8 9.568 2.144 16h-34.944v-144h256v144h-34.944c1.376-6.432 2.144-9.184 2.144-16z" />
<glyph unicode="&#xe62d;" d="M256 480c-141.376 0-256-114.624-256-256s114.624-256 256-256 256 114.624 256 256c0 141.408-114.624 256-256 256zM416 75.552c0-6.368-5.184-11.552-11.552-11.552h-296.896c-6.368 0-11.552 5.184-11.552 11.552v296.896c0 6.368 5.184 11.552 11.552 11.552h296.896c6.368 0 11.552-5.184 11.552-11.552v-296.896zM192 224c0-35.346 28.654-64 64-64s64 28.654 64 64c0 35.346-28.654 64-64 64s-64-28.654-64-64zM320 352h64v-64h-64zM351.2 224c0-52.512-42.72-95.2-95.2-95.2s-95.2 42.688-95.2 95.2c0 6.816 0.8 9.568 2.144 16h-34.944v-144h256v144h-34.944c1.376-6.432 2.144-9.184 2.144-16z" />
<glyph unicode="&#xe62e;" d="M488.896 480h-465.792c-12.736 0-23.104-10.336-23.104-23.072v-465.856c0-12.704 10.368-23.072 23.104-23.072h465.792c12.736 0 23.104 10.368 23.104 23.072v465.856c0 12.736-10.368 23.072-23.104 23.072zM345.344 224c0-49.344-40-89.344-89.344-89.344s-89.344 40-89.344 89.344c0 49.344 40 89.344 89.344 89.344s89.344-40 89.344-89.344zM448 32h-384v224h42.144c-2.208-10.336-3.488-21.024-3.488-32 0-84.544 68.8-153.344 153.344-153.344s153.344 68.8 153.344 153.344c0 10.976-1.28 21.664-3.488 32h42.144v-224zM448 320h-96v96h96v-96z" />
<glyph unicode="&#xe62f;" d="M416 480h-320c-53.024 0-96-42.976-96-96v-320c0-53.024 42.976-96 96-96h320c53.024 0 96 42.976 96 96v320c0 53.024-42.976 96-96 96zM184.576 51.744c-56.672 0-104.48 23.072-104.48 59.936 0 37.408 43.616 73.536 100.288 73.504 6.176 0 11.84 0.16 17.696 0.16-7.744 7.52-13.888 16.768-13.888 28.192 0 6.784 2.176 13.28 5.184 19.072-3.072-0.224-6.208-0.32-9.44-0.32-46.56 0-77.728 33.12-77.728 74.176 0 40.16 43.040 74.816 88.8 74.816 25.536 0 102.080 0 102.080 0l-22.912-16.512h-32.352c21.472-8.256 32.896-33.28 32.896-58.944 0-21.536-11.936-40.096-28.8-53.28-16.48-12.896-19.584-18.272-19.584-29.216 0-9.344 17.664-25.216 26.88-31.744 26.976-19.072 35.68-36.8 35.68-66.336-0.032-36.864-35.712-73.504-100.32-73.504zM448 255.392h-64v-63.872h-31.968v63.872h-64.032v32.608h64.032v64h31.968v-64h64v-32.608zM234.048 303.84c-4.544 34.496-29.536 62.208-55.808 63.008-26.272 0.768-43.904-25.632-39.36-60.192 4.544-34.528 29.536-63.168 55.84-63.936 26.24-0.8 43.904 26.56 39.328 61.12zM216.608 171.584c-7.744 2.496-16.288 3.968-25.408 4.064-39.168 0.416-74.24-23.872-74.24-53.088 0-29.792 28.288-54.592 67.456-54.592 55.072 0 74.24 23.296 74.24 53.056 0 3.616-0.448 7.104-1.248 10.528-4.288 16.896-19.552 25.28-40.8 40.032z" />
<glyph unicode="&#xe630;" d="M256 480c-141.376 0-256-114.624-256-256s114.624-256 256-256 256 114.624 256 256c0 141.408-114.624 256-256 256zM184.576 51.744c-56.672 0-104.48 23.072-104.48 59.936 0 37.408 43.616 73.536 100.288 73.504 6.176 0 11.84 0.16 17.696 0.16-7.744 7.52-13.888 16.768-13.888 28.192 0 6.784 2.176 13.28 5.184 19.072-3.072-0.224-6.208-0.32-9.44-0.32-46.56 0-77.728 33.12-77.728 74.176 0 40.16 43.040 74.816 88.8 74.816 25.536 0 102.080 0 102.080 0l-22.912-16.512h-32.352c21.472-8.256 32.896-33.28 32.896-58.944 0-21.536-11.936-40.096-28.8-53.28-16.48-12.896-19.584-18.272-19.584-29.216 0-9.344 17.664-25.216 26.88-31.744 26.976-19.072 35.68-36.8 35.68-66.336-0.032-36.864-35.712-73.504-100.32-73.504zM448 255.392h-64v-63.872h-31.968v63.872h-64.032v32.608h64.032v64h31.968v-64h64v-32.608zM216.608 171.584c-7.744 2.496-16.288 3.968-25.408 4.064-39.168 0.416-74.24-23.872-74.24-53.088 0-29.792 28.288-54.592 67.456-54.592 55.072 0 74.24 23.296 74.24 53.056 0 3.616-0.448 7.104-1.248 10.528-4.288 16.896-19.552 25.28-40.8 40.032zM234.048 303.84c-4.544 34.496-29.536 62.208-55.808 63.008-26.272 0.768-43.904-25.632-39.36-60.192 4.544-34.528 29.536-63.168 55.84-63.936 26.24-0.8 43.904 26.56 39.328 61.12z" />
<glyph unicode="&#xe631;" d="M137.152 14.368c84.8 0 131.648 48.128 131.648 96.512 0 38.784-11.456 62.048-46.848 87.072-12.096 8.576-35.264 29.408-35.264 41.664 0 14.368 4.096 21.44 25.728 38.336 22.144 17.312 37.824 41.664 37.824 69.952 0 33.696-15.008 66.56-43.2 77.376h42.464l30.016 21.664c0 0-100.48 0-133.984 0-60.032 0-116.544-45.504-116.544-98.208 0-53.856 40.928-97.344 102.048-97.344 4.256 0 8.384 0.096 12.416 0.384-3.968-7.584-6.816-16.128-6.816-25.024 0-14.976 8.064-27.104 18.24-37.024-7.68 0-15.136-0.224-23.232-0.224-74.4 0.032-131.648-47.36-131.648-96.48 0-48.384 62.784-78.656 137.152-78.656zM150.4 265.056c-34.528 1.024-67.328 38.624-73.28 83.936-5.952 45.344 17.184 80.032 51.68 79.008s67.328-37.408 73.28-82.72c5.984-45.344-17.184-81.248-51.68-80.224zM145.824 177.024c12-0.128 23.2-2.048 33.344-5.344 27.904-19.36 47.936-30.336 53.568-52.48 1.056-4.48 1.632-9.088 1.632-13.824 0-39.104-25.184-69.664-97.472-69.664-51.424 0-88.544 32.544-88.544 71.648 0 38.336 46.048 70.208 97.472 69.664zM416 352v94.944h-32v-94.944h-96v-32h96v-97.056h32v97.056h96v32z" />
<glyph unicode="&#xe632;" d="M416 480h-320c-53.024 0-96-42.976-96-96v-320c0-53.024 42.976-96 96-96h320c53.024 0 96 42.976 96 96v320c0 53.024-42.976 96-96 96zM305.376 352.288l84.736-146.816h-98.72l-84.768 146.816h98.752zM107.904 181.248l84.704 146.752 49.344-85.536-84.704-146.752-49.344 85.536zM354.72 95.712h-163.296l49.344 85.536h163.328l-49.376-85.536z" />
<glyph unicode="&#xe633;" d="M256 480c-141.376 0-256-114.624-256-256s114.624-256 256-256 256 114.624 256 256c0 141.408-114.624 256-256 256zM305.376 352.288l84.736-146.816h-98.72l-84.768 146.816h98.752zM107.904 181.248l84.704 146.752 49.344-85.536-84.704-146.752-49.344 85.536zM354.72 95.712h-163.296l49.344 85.536h163.328l-49.376-85.536z" />
<glyph unicode="&#xe634;" d="M487.808 192l-146.464 253.76h-170.688l146.496-253.76zM231.744 255.904l-85.312 147.84-146.432-253.664 85.344-147.84zM144.352-0.672h282.304l85.344 160.672h-276z" />
<glyph unicode="&#xe635;" d="M416 480h-320c-53.024 0-96-42.976-96-96v-320c0-53.024 42.976-96 96-96h320c53.024 0 96 42.976 96 96v320c0 53.024-42.976 96-96 96zM161.792 159.872c-35.872 0-64.928 29.056-64.928 64.928s29.056 64.928 64.928 64.928c35.872 0 64.928-29.056 64.928-64.928s-29.056-64.928-64.928-64.928zM350.88 159.872c-35.872 0-64.928 29.056-64.928 64.928s29.056 64.928 64.928 64.928c35.872 0 64.928-29.056 64.928-64.928s-29.056-64.928-64.928-64.928z" />
<glyph unicode="&#xe636;" d="M256 480c-141.376 0-256-114.624-256-256s114.624-256 256-256 256 114.624 256 256c0 141.408-114.624 256-256 256zM161.792 159.872c-35.872 0-64.928 29.056-64.928 64.928s29.056 64.928 64.928 64.928c35.872 0 64.928-29.056 64.928-64.928s-29.056-64.928-64.928-64.928zM350.88 159.872c-35.872 0-64.928 29.056-64.928 64.928s29.056 64.928 64.928 64.928c35.872 0 64.928-29.056 64.928-64.928s-29.056-64.928-64.928-64.928z" />
<glyph unicode="&#xe637;" d="M0 225.76c0-58.904 47.752-106.656 106.656-106.656s106.656 47.752 106.656 106.656c0 58.904-47.751 106.656-106.656 106.656s-106.656-47.752-106.656-106.656zM298.688 225.76c0-58.904 47.752-106.656 106.656-106.656s106.656 47.752 106.656 106.656c0 58.904-47.752 106.656-106.656 106.656s-106.656-47.752-106.656-106.656z" />
<glyph unicode="&#xe638;" d="M416 480h-320c-53.024 0-96-42.976-96-96v-320c0-53.024 42.976-96 96-96h320c53.024 0 96 42.976 96 96v320c0 53.024-42.976 96-96 96zM322.176 224.032l-41.952-0.032-0.032-153.6h-57.568v153.6h-38.4v52.928l38.4 0.032-0.064 31.168c0 43.2 11.712 69.472 62.56 69.472h42.368v-52.96h-26.496c-19.808 0-20.768-7.392-20.768-21.184l-0.064-26.496h47.616l-5.6-52.928z" />
<glyph unicode="&#xe639;" d="M256 480c-141.376 0-256-114.624-256-256s114.624-256 256-256 256 114.624 256 256c0 141.408-114.624 256-256 256zM322.176 224.032l-41.952-0.032-0.032-153.6h-57.568v153.6h-38.4v52.928l38.4 0.032-0.064 31.168c0 43.2 11.712 69.472 62.56 69.472h42.368v-52.96h-26.496c-19.808 0-20.768-7.392-20.768-21.184l-0.064-26.496h47.616l-5.6-52.928z" />
<glyph unicode="&#xe63a;" d="M192.864-32h95.936l0.064 256 87.136 0.032 9.344 88.224h-96.544l0.128 44.16c0 23.008 1.568 35.328 34.592 35.328h60.992v88.256h-87.456c-84.768 0-104.288-43.808-104.288-115.776l0.096-51.968-64.352-0.032v-88.224h64.352v-256z" />
<glyph unicode="&#xe63b;" d="M247.104 277.216c-27.136 48.224-56.352 88.736-60.672 94.656-45.792-21.6-80.032-63.808-90.624-114.592 7.328-0.096 74.752-0.384 151.296 19.936zM416 480h-320c-53.024 0-96-42.976-96-96v-320c0-53.024 42.976-96 96-96h320c53.024 0 96 42.976 96 96v320c0 53.024-42.976 96-96 96zM256 32.416c-105.632 0-191.584 85.952-191.584 191.584s85.952 191.584 191.584 191.584 191.584-85.952 191.584-191.584c0-105.632-85.952-191.584-191.584-191.584zM267.424 222.336c2.144 0.672 4.288 1.344 6.432 1.92-4.096 9.312-8.576 18.624-13.248 27.776-81.728-24.448-161.056-23.424-168.224-23.264-0.032-1.664-0.064-3.328-0.064-4.992 0.032-42.048 15.936-80.416 42.080-109.44 3.712 6.336 48.608 80.704 133.024 108zM291.264 262.72c3.808-7.808 7.456-15.744 10.848-23.712 1.184-2.816 2.368-5.664 3.52-8.448 54.464 6.848 108.576-4.128 113.952-5.28-0.32 38.624-14.144 74.112-36.928 101.952-3.424-4.64-30.848-39.808-91.392-64.512zM283.936 196.832c-92.288-32.16-125.44-96.192-128.384-102.208 27.744-21.632 62.624-34.528 100.448-34.528 22.688-0.032 44.32 4.608 63.936 12.992-2.432 14.368-11.936 64.416-34.912 124.096-0.384-0.096-0.736-0.224-1.088-0.352zM364.48 346.176c-28.896 25.632-66.88 41.248-108.48 41.248-13.184 0-26.048-1.568-38.336-4.544 4.512-6.080 34.24-46.56 61.056-95.808 58.208 21.792 82.816 54.912 85.76 59.104zM315.648 204.768c21.408-58.816 30.112-106.72 31.776-116.672 36.704 24.832 62.848 64.16 70.144 109.696-5.568 1.76-50.624 15.2-101.92 6.976z" />
<glyph unicode="&#xe63c;" d="M315.648 204.768c21.408-58.816 30.112-106.72 31.776-116.672 36.704 24.832 62.848 64.16 70.144 109.696-5.568 1.76-50.624 15.2-101.92 6.976zM283.936 196.832c-92.288-32.16-125.44-96.192-128.384-102.208 27.744-21.632 62.624-34.528 100.448-34.528 22.688-0.032 44.32 4.608 63.936 12.992-2.432 14.368-11.936 64.416-34.912 124.096-0.384-0.096-0.736-0.224-1.088-0.352zM291.264 262.72c3.808-7.808 7.456-15.744 10.848-23.712 1.184-2.816 2.368-5.664 3.52-8.448 54.464 6.848 108.576-4.128 113.952-5.28-0.32 38.624-14.144 74.112-36.928 101.952-3.424-4.64-30.848-39.808-91.392-64.512zM267.424 222.336c2.144 0.672 4.288 1.344 6.432 1.92-4.096 9.312-8.576 18.624-13.248 27.776-81.728-24.448-161.056-23.424-168.224-23.264-0.032-1.664-0.064-3.328-0.064-4.992 0.032-42.048 15.936-80.416 42.080-109.44 3.712 6.336 48.608 80.704 133.024 108zM247.104 277.216c-27.136 48.224-56.352 88.736-60.672 94.656-45.792-21.6-80.032-63.808-90.624-114.592 7.328-0.096 74.752-0.384 151.296 19.936zM364.48 346.176c-28.896 25.632-66.88 41.248-108.48 41.248-13.184 0-26.048-1.568-38.336-4.544 4.512-6.080 34.24-46.56 61.056-95.808 58.208 21.792 82.816 54.912 85.76 59.104zM256 480c-141.376 0-256-114.624-256-256s114.624-256 256-256 256 114.624 256 256c0 141.408-114.624 256-256 256zM256 32.416c-105.632 0-191.584 85.952-191.584 191.584s85.952 191.584 191.584 191.584 191.584-85.952 191.584-191.584c0-105.632-85.952-191.584-191.584-191.584z" />
<glyph unicode="&#xe63d;" d="M256 480c-141.152 0-256-114.848-256-256s114.848-256 256-256 256 114.848 256 256-114.848 256-256 256zM256 442.336c55.584 0 106.336-20.832 144.96-55.104-3.936-5.6-36.832-49.824-114.592-78.976-35.84 65.824-75.552 119.904-81.6 128 16.448 3.968 33.6 6.080 51.232 6.080zM163.040 421.568c5.76-7.904 44.832-62.048 81.056-126.464-102.272-27.168-192.352-26.784-202.144-26.656 14.176 67.872 59.904 124.256 121.088 153.12zM37.312 223.68c0 2.24 0.032 4.48 0.096 6.688 9.568-0.224 115.552-1.568 224.736 31.104 6.272-12.256 12.224-24.704 17.728-37.12-2.88-0.8-5.76-1.664-8.608-2.592-112.768-36.448-172.768-135.808-177.728-144.288-34.912 38.752-56.192 90.048-56.224 146.208zM255.968 5.024c-50.528 0-97.12 17.248-134.208 46.144 3.936 8.032 48.224 93.568 171.552 136.544 0.48 0.16 0.96 0.32 1.44 0.48 30.72-79.776 43.392-146.624 46.656-165.824-26.24-11.168-55.104-17.376-85.44-17.344zM378.176 42.4c-2.24 13.312-13.856 77.312-42.464 155.904 68.512 10.976 128.704-6.976 136.192-9.344-9.76-60.832-44.672-113.376-93.728-146.56zM322.336 232.768c-1.536 3.744-3.104 7.52-4.704 11.296-4.544 10.656-9.408 21.248-14.496 31.68 80.864 32.992 117.504 79.968 122.112 86.208 30.464-37.216 48.896-84.608 49.344-136.224-7.2 1.536-79.488 16.192-152.256 7.040z" />
<glyph unicode="&#xe63e;" d="M416 480h-320c-53.024 0-96-42.976-96-96v-320c0-53.024 42.976-96 96-96h320c53.024 0 96 42.976 96 96v320c0 53.024-42.976 96-96 96zM273.664 183.36l-40.48 72.992c17.536 3.008 32.704 3.776 45.856 3.008l22.976-36.704 55.040 13.344c-21.632 21.184-61.152 41.088-133.408 28.224-1.6-0.288-3.168-0.608-4.704-0.896l44.672-82.72-160.864-44.192c-3.488 5.408-6.304 11.168-8.384 17.216-10.4 30.112-1.856 61.024 19.776 85.568 13.088 14.688 31.264 26.912 53.376 35.456l-13.536 28.352c12.032 3.84 25.056 6.72 38.88 8.576l14.208-26.336c1.536 0.256 3.072 0.512 4.64 0.736 42.784 6.464 84.576 6.848 123.136-2.208 39.328-7.744 75.424-24.928 92.064-44.224 3.36-3.872 5.888-7.904 7.616-12.032l-160.864-44.16zM148.736 185.536l55.040 13.344-24.608 51.456c-31.424-16.832-35.392-42.144-30.432-64.8z" />
<glyph unicode="&#xe63f;" d="M256 480c-141.376 0-256-114.624-256-256s114.624-256 256-256 256 114.624 256 256c0 141.408-114.624 256-256 256zM273.664 183.36l-40.48 72.992c17.536 3.008 32.704 3.776 45.856 3.008l22.976-36.704 55.040 13.344c-21.632 21.184-61.152 41.088-133.408 28.224-1.6-0.288-3.168-0.608-4.704-0.896l44.672-82.72-160.864-44.192c-3.488 5.408-6.304 11.168-8.384 17.216-10.4 30.112-1.856 61.024 19.776 85.568 13.088 14.688 31.264 26.912 53.376 35.456l-13.536 28.352c12.032 3.84 25.056 6.72 38.88 8.576l14.208-26.336c1.536 0.256 3.072 0.512 4.64 0.736 42.784 6.464 84.576 6.848 123.136-2.208 39.328-7.744 75.424-24.928 92.064-44.224 3.36-3.872 5.888-7.904 7.616-12.032l-160.864-44.16zM148.736 185.536l55.040 13.344-24.608 51.456c-31.424-16.832-35.392-42.144-30.432-64.8z" />
<glyph unicode="&#xe640;" d="M363.872 312.832c-57.312 13.44-119.392 12.864-182.976 3.264-2.304-0.352-4.576-0.704-6.848-1.088l-21.12 39.136c-20.576-2.752-39.904-7.040-57.792-12.736l20.128-42.112c-32.896-12.736-59.872-30.88-79.328-52.704-32.128-36.48-44.832-82.4-29.408-127.136 3.104-9.024 7.296-17.568 12.48-25.6l239.040 65.664-66.368 122.912c2.272 0.448 4.608 0.896 6.976 1.312 107.328 19.136 166.048-10.432 198.208-41.92l-81.792-19.84-34.144 54.56c-19.52 1.152-42.048-0.032-68.128-4.48l60.16-108.448 239.040 65.632c-2.592 6.144-6.336 12.128-11.328 17.888-24.736 28.64-78.368 54.176-136.8 65.696zM87.36 166.848c-7.392 33.664-1.504 71.264 45.216 96.288l36.576-76.48-81.792-19.808z" horiz-adv-x="521" />
<glyph unicode="&#xe641;" d="M256.192 352h127.808v-128.352h-127.808zM416 480h-320c-53.024 0-96-42.976-96-96v-320c0-53.024 42.976-96 96-96h320c53.024 0 96 42.976 96 96v320c0 53.024-42.976 96-96 96zM416 223.648v-148.256c0-6.272-5.12-11.392-11.392-11.392h-292.608c-8.832 0-16 7.168-16 16v292.608c0 6.272 5.12 11.392 11.392 11.392h292.608c8.832 0 16-7.168 16-16v-144.352zM128 223.648h128.192v-127.648h-128.192z" />
<glyph unicode="&#xe642;" d="M256 480c-141.376 0-256-114.624-256-256s114.624-256 256-256 256 114.624 256 256c0 141.408-114.624 256-256 256zM416 223.648v-148.256c0-6.272-5.12-11.392-11.392-11.392h-292.608c-8.832 0-16 7.168-16 16v292.608c0 6.272 5.12 11.392 11.392 11.392h292.608c8.832 0 16-7.168 16-16v-144.352zM128 223.648h128.192v-127.648h-128.192zM256.192 352h127.808v-128.352h-127.808z" />
<glyph unicode="&#xe643;" d="M480 480h-457.216c-12.544 0-22.784-10.24-22.784-22.816v-457.184c0-17.664 14.336-32 32-32h457.216c12.544 0 22.784 10.24 22.784 22.816v457.184c0 17.664-14.336 32-32 32zM256.352 223.264v-223.264h-224.352v224h224v224h224v-224.736h-223.648z" />
<glyph unicode="&#xe644;" d="M416 480h-320c-53.024 0-96-42.976-96-96v-320c0-53.024 42.976-96 96-96h320c53.024 0 96 42.976 96 96v320c0 53.024-42.976 96-96 96zM415.584 167.456c0-56.928-46.336-103.040-103.68-103.040h-111.712c-57.28 0-103.808 46.112-103.808 103.008v113.088c0.032 56.928 46.496 103.072 103.808 103.072h52.32c57.344 0 103.232-42.816 103.232-99.744 0.768-10.656 10.368-19.936 21.312-19.936h17.888c11.456 0 20.64-12.032 20.64-23.392v-73.056zM315.84 184.096h-119.68c-10.976 0-19.936-8.992-19.936-19.936s8.992-19.936 19.936-19.936h119.68c10.976 0 19.936 8.992 19.936 19.936s-8.96 19.936-19.936 19.936zM196.16 263.904h59.84c10.976 0 19.936 8.992 19.936 19.936 0 10.976-8.992 19.936-19.936 19.936h-59.84c-10.976 0-19.936-8.992-19.936-19.936-0.032-10.976 8.96-19.936 19.936-19.936z" />
<glyph unicode="&#xe645;" d="M315.84 184.096h-119.68c-10.976 0-19.936-8.992-19.936-19.936s8.992-19.936 19.936-19.936h119.68c10.976 0 19.936 8.992 19.936 19.936s-8.96 19.936-19.936 19.936zM196.16 263.904h59.84c10.976 0 19.936 8.992 19.936 19.936 0 10.976-8.992 19.936-19.936 19.936h-59.84c-10.976 0-19.936-8.992-19.936-19.936-0.032-10.976 8.96-19.936 19.936-19.936zM256 480c-141.376 0-256-114.624-256-256s114.624-256 256-256 256 114.624 256 256c0 141.408-114.624 256-256 256zM415.584 167.456c0-56.928-46.336-103.040-103.68-103.040h-111.712c-57.28 0-103.808 46.112-103.808 103.008v113.088c0.032 56.928 46.496 103.072 103.808 103.072h52.32c57.344 0 103.232-42.816 103.232-99.744 0.768-10.656 10.368-19.936 21.312-19.936h17.888c11.456 0 20.64-12.032 20.64-23.392v-73.056z" />
<glyph unicode="&#xe646;" d="M478.912 288h-28.704c-17.568 0-32.992 14.88-34.208 32 0 91.328-73.632 160-165.6 160h-83.904c-91.904 0-166.432-74.016-166.496-165.344v-181.408c0-91.296 74.592-165.248 166.496-165.248h179.2c91.968 0 166.304 73.952 166.304 165.28v117.184c0 18.24-14.72 37.536-33.088 37.536zM160 352h96c17.6 0 32-14.4 32-32s-14.4-32-32-32h-96c-17.6 0-32 14.4-32 32s14.4 32 32 32zM352 96h-192c-17.6 0-32 14.4-32 32s14.4 32 32 32h192c17.6 0 32-14.4 32-32s-14.4-32-32-32z" />
<glyph unicode="&#xe647;" d="M96 288h96v-192h128l-0.672 192h96.672l-160 160zM384 32h-256v64h-64v-128h384v128h-64z" />
<glyph unicode="&#xe648;" d="M416 448h-64c0 17.664-14.336 32-32 32h-96c-17.664 0-32-14.336-32-32h-64c-17.664 0-32-14.336-32-32h352c0 17.664-14.336 32-32 32zM96 0c0-17.664 14.336-32 32-32h288c17.664 0 32 14.336 32 32v384h-352v-384zM352 304c0 8.832 7.168 16 16 16s16-7.168 16-16v-256c0-8.832-7.168-16-16-16s-16 7.168-16 16v256zM256 304c0 8.832 7.168 16 16 16s16-7.168 16-16v-256c0-8.832-7.168-16-16-16s-16 7.168-16 16v256zM160 304c0 8.832 7.168 16 16 16s16-7.168 16-16v-256c0-8.832-7.168-16-16-16s-16 7.168-16 16v256z" />
<glyph unicode="&#xe649;" d="M480 320h-128v32c0 17.664-14.336 32-32 32h-128c-17.664 0-32-14.336-32-32v-32h-128c-17.664 0-32-14.336-32-32v-64h512v64c0 17.664-14.336 32-32 32zM192 352h128v-32h-128v32zM192 192h128v-32h-128zM352 160c0-17.664-14.336-32-32-32h-128c-17.664 0-32 14.336-32 32v32h-160v-192c0-17.664 14.336-32 32-32h448c17.664 0 32 14.336 32 32v192h-160v-32z" />
<glyph unicode="&#xe64a;" d="M464.724 480c-0.288 0-0.575 0-0.863 0-0.256 0-0.48 0.032-0.736 0h-169.11c-4.894-0.256-16.025-7.901-17.464-9.34l-203.591-203.559c-12.474-12.475-12.474-32.69 0-45.164l25.397-25.397-25.397-25.397c-12.474-12.474-12.474-32.69 0-45.164l148.607-148.607c6.238-6.238 14.393-9.34 22.582-9.34s16.345 3.103 22.582 9.34l203.559 203.591c1.471 1.44 9.5 11.291 9.5 17.433v265.708c0.448 8.924-6.301 15.897-15.065 15.897zM431.811 448.142c8.828 0 15.993-7.165 15.993-15.993s-7.165-15.993-15.993-15.993-15.993 7.165-15.993 15.993 7.165 15.993 15.993 15.993zM447.708 203.545l-203.495-203.591-148.607 148.543 25.397 25.397 100.596-100.596c6.238-6.238 14.393-9.34 22.582-9.34s16.345 3.103 22.582 9.34l181.041 181.073v-50.57c-0.096-0.16-0.16-0.256-0.096-0.256-0.032 0-0.032 0 0 0z" />
<glyph unicode="&#xe64b;" d="M464.928 447.84c-0.288 0-0.576 0-0.864 0-0.256 0-0.48 0.032-0.736 0h-201.184c-4.896-0.224-16.032-7.872-17.472-9.312l-235.328-235.328c-12.48-12.48-12.48-32.704 0-45.184l180.672-180.672c6.272-6.24 14.432-9.344 22.592-9.344s16.352 3.104 22.592 9.344l235.328 235.328c1.44 1.44 9.472 11.328 9.472 17.472v201.824c0.448 8.928-6.304 15.872-15.072 15.872zM432 384c-8.832 0-16 7.168-16 16s7.168 16 16 16 16-7.168 16-16c0-8.832-7.168-16-16-16z" />
<glyph unicode="&#xe64c;" d="M64 384v-384c0-12.928 7.808-24.608 19.744-29.568 3.968-1.632 8.128-2.432 12.256-2.432 8.32 0 16.512 3.264 22.624 9.376l137.376 137.376 137.376-137.376c6.112-6.112 14.304-9.376 22.624-9.376 4.128 0 8.288 0.8 12.224 2.432 11.968 4.96 19.776 16.64 19.776 29.568v384h-384zM448 416v32c0 17.664-14.336 32-32 32h-320c-17.664 0-32-14.336-32-32v-32h384z" />
<glyph unicode="&#xe64d;" d="M256 480c-141.376 0-256-114.624-256-256s114.624-256 256-256 256 114.624 256 256-114.624 256-256 256zM384.416 228.672c-1.984-32.832-16.8-81.984-76.096-129.824-2.848-2.272-6.176-3.392-9.504-3.392-4.64 0-9.216 2.144-12.256 6.24-5.248 7.040-4.032 17.152 2.752 22.592 48.288 38.944 61.504 77.088 63.84 103.264-6.816-3.968-14.528-6.4-22.88-6.4-26.048 0-47.136 21.92-47.136 48.96s21.088 48.96 47.136 48.96c5.888 0 11.296-1.536 16.448-3.616l-0.192 0.384c0 0 2.272-0.832 5.44-2.592 0.16-0.096 0.32-0.128 0.48-0.192 0.096-0.064 0.16-0.128 0.256-0.192 2.176-1.248 4.672-2.912 7.456-5.28 1.184-1.024 2.176-2.208 3.264-3.328 11.616-11.552 24.352-33.6 20.992-75.584zM175.104 221.152c-26.048 0-47.136 21.92-47.136 48.96s21.12 48.96 47.136 48.96c5.888 0 11.296-1.536 16.448-3.616l-0.16 0.384c0 0 2.272-0.832 5.44-2.592 0.16-0.096 0.32-0.128 0.48-0.192 0.096-0.064 0.16-0.128 0.256-0.192 2.176-1.248 4.672-2.912 7.456-5.28 1.184-1.024 2.176-2.208 3.264-3.328 11.616-11.552 24.384-33.6 20.992-75.616-1.984-32.832-16.8-81.984-76.096-129.824-2.848-2.272-6.176-3.392-9.504-3.392-4.64 0-9.216 2.144-12.256 6.24-5.248 7.040-4.032 17.152 2.752 22.592 48.288 38.944 61.504 77.088 63.84 103.264-6.848-3.904-14.56-6.368-22.912-6.368z" />
<glyph unicode="&#xe64e;" d="M124.772 175.651c0-23.925 60.202-36.62 124.803-38.399 0-0.125-0.031-0.25-0.031-0.375v-93.579c0-17.219 6.987-62.386 15.596-62.386s15.596 45.168 15.596 62.386v93.579c0 0.125-0.031 0.25-0.031 0.375 64.601 1.778 124.803 14.474 124.803 38.399 0 25.391-22.989 43.92-62.386 53.901v161.548c39.397 13.351 62.386 34.842 62.386 50.127 0 51.686-280.736 51.686-280.736 0 0-16.813 22.989-37.837 62.386-50.689v-160.986c-39.397-10.013-62.386-28.51-62.386-53.901z" horiz-adv-x="499" />
<glyph unicode="&#xe64f;" d="M333.63 389.010c0 48.71-42.28 90.99-90.99 90.99s-90.99-42.28-90.99-90.99c0-48.71 42.28-90.99 90.99-90.99s90.99 42.28 90.99 90.99zM242.639 267.69c-79.707 0-151.65-85.986-151.65-192.838s303.299-106.852 303.299 0-71.942 192.838-151.65 192.838z" horiz-adv-x="486" />
<glyph unicode="&#xe650;" d="M244.352-23.328c2.688-2.976 5.28-4.896 7.776-6.24 0.032-0.032 0.096-0.032 0.128-0.064 1.728-0.896 3.424-1.568 5.024-1.568s3.296 0.672 5.024 1.568c0.032 0.032 0.096 0.032 0.128 0.064 2.496 1.344 5.088 3.264 7.776 6.24 0 0 148.736 161.76 163.68 301.92 0.896 7.232 1.504 14.56 1.504 22.016 0 99.072-80.32 179.392-179.392 179.392s-179.392-80.32-179.392-179.392c0-7.584 0.608-14.976 1.536-22.304 15.328-140.096 166.208-301.632 166.208-301.632zM256 416c63.616 0 115.392-51.776 115.392-115.392s-51.776-115.392-115.392-115.392-115.392 51.776-115.392 115.392c0 63.616 51.776 115.392 115.392 115.392z" />
<glyph unicode="&#xe651;" d="M211.456 350.976c-6.112 70.304-79.456 104.8-82.56 106.208-2.912 1.376-6.176 1.792-9.312 1.248-84.672-14.048-97.408-63.328-97.92-65.376-0.704-2.88-0.576-5.856 0.32-8.64 100.992-313.344 310.88-371.424 379.872-390.528 5.312-1.472 9.696-2.656 13.024-3.744 1.6-0.544 3.264-0.768 4.928-0.768 2.272 0 4.544 0.48 6.624 1.44 2.112 0.96 51.968 24.448 64.16 101.056 0.544 3.328 0 6.784-1.536 9.792-1.088 2.112-27.168 51.744-99.488 69.28-5.056 1.312-10.24-0.032-14.144-3.36-22.816-19.488-54.336-40.256-67.936-42.4-91.168 44.576-142.080 130.112-144 146.336-1.12 9.12 19.776 41.152 43.808 67.2 3.040 3.296 4.576 7.776 4.16 12.256z" />
<glyph unicode="&#xe652;" d="M256 480c-141.376 0-256-114.624-256-256s114.624-256 256-256 256 114.624 256 256-114.624 256-256 256zM224 160c0-17.664-14.336-32-32-32s-32 14.336-32 32v128c0 17.664 14.336 32 32 32s32-14.336 32-32v-128zM352 160c0-17.664-14.336-32-32-32s-32 14.336-32 32v128c0 17.664 14.336 32 32 32s32-14.336 32-32v-128z" />
<glyph unicode="&#xe653;" d="M12.468 4.154c23.373-30.342 71.652-32.31 107.837-4.437 14.718 11.343 24.904 25.904 30.56 41.185 3.25 6.437 5.375 15.562 5.375 25.998v233.517l281.233 53.153v-123.305c0-43.498-33.279-53.496-45.060-55.715-1.031-0.125-2.031-0.375-3.063-0.563-0.531-0.063-1.313-0.156-1.313-0.156l0.188-0.063c-13.937-2.531-27.967-8.375-40.56-18.062-36.185-27.873-46.591-75.058-23.218-105.4s71.652-32.342 107.837-4.469c18.312 14.124 29.967 33.185 34.029 52.497 1.406 4.687 2.406 9.843 2.406 15.687v303.294c0 1.906-0.375 3.531-0.531 5.344 0.063 0.938 0.531 2 0.531 2.938v31.248c0 17.249-13.999 26.998-31.248 21.718l-281.233-53.153c-17.249-5.25-31.248-23.53-31.248-40.779v-31.248c0-0.438 0.219-0.75 0.25-1.156-0.031-0.938-0.25-1.75-0.25-2.688v-165.428c0-43.56-33.373-53.528-45.123-55.716-0.594-0.094-1.188-0.281-1.813-0.375-1.531-0.25-2.531-0.344-2.531-0.344l0.344-0.156c-13.812-2.594-27.717-8.375-40.185-17.968-36.185-27.873-46.559-75.058-23.218-105.4z" horiz-adv-x="500" />
<glyph unicode="&#xe654;" d="M224 67.072v-67.072h-48c-8.832 0-16-7.168-16-16s7.168-16 16-16h160c8.832 0 16 7.168 16 16s-7.168 16-16 16h-48v67.264c66.656 13.152 128 67.104 128 156.736v48c0 8.832-7.168 16-16 16s-16-7.168-16-16v-48c0-84.032-64.416-128-128-128-61.664 0-128 40.064-128 128v48c0 8.832-7.168 16-16 16s-16-7.168-16-16v-48c0-90.88 60.256-144.192 128-156.928zM256 160c35.36 0 64 28.64 64 64v192c0 35.36-28.64 64-64 64s-64-28.64-64-64v-192c0-35.36 28.64-64 64-64z" />
<glyph unicode="&#xe655;" d="M161.344 387.136l-129.344 60.864v-384l129.344-60.864zM193.344 3.584l127.328 57.376v384l-127.328-57.376zM352.672 60.288l127.328-60.288v384l-127.328 60.288z" />
<glyph unicode="&#xe656;" d="M480 352h-448c-17.664 0-32-14.336-32-32v-53.728l256-102.4 256 102.4v53.728c0 17.664-14.336 32-32 32zM0 214.016v-214.016c0-17.664 14.336-32 32-32h448c17.664 0 32 14.336 32 32v214.016l-256-102.4-256 102.4z" />
<glyph unicode="&#xe657;" d="M416 288h-290.464v29.536c0 54.304 44.16 98.464 98.464 98.464 35.776 0 66.912-19.328 84.128-47.968 0.16 0.192 0.448 0.288 0.64 0.48 5.792-8.256 14.912-14.016 25.76-14.016 17.664 0 32 14.336 32 32 0 4.32-0.896 8.448-2.464 12.224-0.128 0.224-0.224 0.48-0.352 0.704-1.408 3.2-3.424 6.016-5.76 8.544-29.12 43.232-77.888 72.032-133.952 72.032-89.728 0-162.464-72.736-162.464-162.464v-29.536h-29.536c-17.664 0-32-14.336-32-32v-256c0-17.664 14.336-32 32-32h384c17.664 0 32 14.336 32 32v256c0 17.664-14.336 32-32 32zM224 64c-35.36 0-64 28.64-64 64s28.64 64 64 64 64-28.64 64-64-28.64-64-64-64z" />
<glyph unicode="&#xe658;" d="M256 480c-89.728 0-162.464-72.736-162.464-162.464v-29.536h-29.536c-17.664 0-32-14.336-32-32v-256c0-17.664 14.336-32 32-32h384c17.664 0 32 14.336 32 32v256c0 17.664-14.336 32-32 32h-29.536v29.536c0 89.728-72.736 162.464-162.464 162.464zM157.536 317.536c0 54.304 44.16 98.464 98.464 98.464s98.464-44.16 98.464-98.464v-29.536h-196.928v29.536zM256 64c-35.36 0-64 28.64-64 64s28.64 64 64 64 64-28.64 64-64c0-35.36-28.64-64-64-64z" />
<glyph unicode="&#xe659;" d="M433.948 222.020c2.267 6.068 4.151 12.327 5.781 18.619 0.288 1.086 0.639 2.108 0.894 3.194 1.437 5.908 2.459 11.944 3.322 18.012 0.192 1.405 0.543 2.81 0.702 4.215 0.863 7.377 1.341 14.819 1.341 22.324 0 105.644-85.972 191.617-191.617 191.617s-191.617-85.972-191.617-191.617c0-7.505 0.479-14.946 1.374-22.291 0.159-1.437 0.479-2.81 0.671-4.216 0.862-6.068 1.884-12.104 3.322-18.012 0.255-1.086 0.607-2.139 0.894-3.194 1.629-6.292 3.513-12.551 5.781-18.619 0.224-0.575 0.479-1.149 0.671-1.724 2.523-6.547 5.334-12.966 8.559-19.194 0.127-0.255 0.255-0.479 0.383-0.702 3.353-6.451 7.058-12.711 11.145-18.779 0.127-0.192 0.255-0.351 0.352-0.543 3.992-5.908 8.335-11.561 12.966-17.022 0.383-0.447 0.734-0.863 1.118-1.31 4.216-4.886 8.782-9.517 13.509-13.988 1.054-0.99 2.044-1.98 3.13-2.938 1.405-1.245 2.65-2.651 4.12-3.865 0.863-0.735 1.916-1.214 2.875-1.82 3.161-2.619 6.163-5.365 9.517-7.793 1.341-0.958 2.172-1.884 3.321-2.842 22.036-18.3 11.274-32.767 35.8-32.767 3.417 0 112.032 0 144.224 0 24.495 0 13.764 14.467 35.832 32.767 1.149 0.958 1.98 1.853 3.322 2.842 3.353 2.427 6.356 5.173 9.517 7.793 0.926 0.639 1.98 1.086 2.875 1.82 1.437 1.214 2.714 2.619 4.12 3.865 1.054 0.958 2.076 1.98 3.13 2.938 4.726 4.471 9.262 9.102 13.509 13.988 0.383 0.447 0.735 0.863 1.118 1.31 4.63 5.461 8.974 11.114 12.966 17.022 0.127 0.192 0.255 0.351 0.351 0.543 4.056 6.036 7.76 12.296 11.114 18.747 0.127 0.224 0.255 0.479 0.383 0.702 3.226 6.228 6.036 12.647 8.559 19.194 0.192 0.607 0.447 1.149 0.671 1.724zM367.265 286.882c-8.815 0-15.968 7.154-15.968 15.968 0 48.67-43.912 81.341-79.841 81.341-8.815 0-15.968 7.153-15.968 15.968s7.153 15.968 15.968 15.968c54.898 0 111.776-40.431 111.776-113.277 0-8.815-7.154-15.968-15.968-15.968zM252.423 0.958h-70.163l57.581-29.445c4.567-2.332 9.549-3.513 14.531-3.513 4.918 0 9.868 1.149 14.403 3.417l58.411 29.541h-74.762zM351.298 48.863c0 8.815-7.154 15.968-15.968 15.968h-159.68c-8.815 0-15.968-7.154-15.968-15.968s7.154-15.968 15.968-15.968h159.68c8.815 0 15.968 7.154 15.968 15.968z" horiz-adv-x="511" />
<glyph unicode="&#xe65a;" d="M496 480h-64c-3.872 0-7.616-1.408-10.56-3.968l-220.864-193.632c-11.424 2.4-29.088 5.6-40.576 5.6-88.224 0-160-71.776-160-160s71.776-160 160-160 160 71.776 160 160c0 26.208-4.992 43.776-10.656 58.368l54.464 18.496c6.624 2.24 11.008 8.544 10.848 15.52l-1.344 60.736 61.12 4.256c8.192 0.576 14.624 7.264 14.88 15.456l2.272 72.928 47.872 10.624c7.328 1.6 12.544 8.128 12.544 15.616v64c0 8.832-7.168 16-16 16zM112 128c19.2 0 35.776-11.296 43.456-27.584 2.912-6.208 4.544-13.12 4.544-20.416 0-26.496-21.504-48-48-48s-48 21.504-48 48 21.504 48 48 48z" />
<glyph unicode="&#xe65b;" d="M26.496 195.904l229.504 198.912 229.504-198.912c3.040-2.624 6.784-3.904 10.496-3.904 4.48 0 8.928 1.888 12.096 5.504 5.792 6.688 5.056 16.768-1.6 22.592l-240 208c-6.016 5.216-14.944 5.216-20.96 0l-85.536-74.112v30.016c0 17.664-14.336 32-32 32s-32-14.336-32-32v-85.472l-90.496-78.432c-6.656-5.792-7.392-15.904-1.6-22.592 5.824-6.656 15.904-7.392 22.592-1.6zM192 128h128v-160h96c17.664 0 32 14.336 32 32v156.832c0 9.6-4.288 18.656-11.712 24.736l-160 131.168c-5.888 4.832-13.088 7.264-20.288 7.264s-14.4-2.432-20.288-7.264l-160-131.168c-7.424-6.048-11.712-15.136-11.712-24.736v-156.832c0-17.664 14.336-32 32-32h96v160z" horiz-adv-x="516" />
<glyph unicode="&#xe65c;" d="M511.744 258.656c-1.344 78.528-65.056 148.512-143.744 148.512-45.504 0-85.6-23.808-112-58.752-26.4 34.944-66.496 58.752-112 58.752-78.688 0-142.4-69.984-143.744-148.512h-0.256c0-0.48 0.096-0.928 0.096-1.408 0-0.352-0.096-0.704-0.096-1.088 0-2.208 0.544-3.872 0.64-5.984 7.040-200.128 253.344-282.176 253.344-282.176s249.92 81.952 257.312 281.856c0.128 2.24 0.704 4 0.704 6.304 0 0.384-0.096 0.736-0.096 1.088 0 0.512 0.096 0.928 0.096 1.408h-0.256z" />
<glyph unicode="&#xe65d;" d="M215.721 402.957c0 41.233-35.81 77.043-77.043 77.043s-77.043-35.81-77.043-77.043c0-41.233 35.81-77.043 77.043-77.043s77.043 35.81 77.043 77.043zM269.652 110.192c0 123.269-63.977 184.904-134.826 184.904s-134.826-61.635-134.826-184.904c0-84.44 269.652-84.44 269.652 0zM362.104 265.974c41.233 0 77.043 35.81 77.043 77.043s-35.81 77.043-77.043 77.043-77.043-35.81-77.043-77.043 35.81-77.043 77.043-77.043zM358.252 235.156c-21.295 0-41.696-6.256-60.187-17.412 11.187-30.078 17.813-65.733 17.813-107.553 0-41.511-27.674-73.839-75.163-92.329 58.892-49.863 252.363-39.231 252.363 32.389 0 123.269-63.977 184.905-134.826 184.905z" horiz-adv-x="493" />
<glyph unicode="&#xe65e;" d="M64 320h64c17.664 0 32 14.336 32 32v64c0 17.664-14.336 32-32 32h-64c-17.664 0-32-14.336-32-32v-64c0-17.664 14.336-32 32-32zM224 320h64c17.664 0 32 14.336 32 32v64c0 17.664-14.336 32-32 32h-64c-17.664 0-32-14.336-32-32v-64c0-17.664 14.336-32 32-32zM384 320h64c17.664 0 32 14.336 32 32v64c0 17.664-14.336 32-32 32h-64c-17.664 0-32-14.336-32-32v-64c0-17.664 14.336-32 32-32zM32 192c0-17.664 14.336-32 32-32h64c17.664 0 32 14.336 32 32v64c0 17.664-14.336 32-32 32h-64c-17.664 0-32-14.336-32-32v-64zM192 192c0-17.664 14.336-32 32-32h64c17.664 0 32 14.336 32 32v64c0 17.664-14.336 32-32 32h-64c-17.664 0-32-14.336-32-32v-64zM352 192c0-17.664 14.336-32 32-32h64c17.664 0 32 14.336 32 32v64c0 17.664-14.336 32-32 32h-64c-17.664 0-32-14.336-32-32v-64zM32 32c0-17.664 14.336-32 32-32h64c17.664 0 32 14.336 32 32v64c0 17.664-14.336 32-32 32h-64c-17.664 0-32-14.336-32-32v-64zM192 32c0-17.664 14.336-32 32-32h64c17.664 0 32 14.336 32 32v64c0 17.664-14.336 32-32 32h-64c-17.664 0-32-14.336-32-32v-64zM352 32c0-17.664 14.336-32 32-32h64c17.664 0 32 14.336 32 32v64c0 17.664-14.336 32-32 32h-64c-17.664 0-32-14.336-32-32v-64z" />
<glyph unicode="&#xe65f;" d="M96 256h96c17.664 0 32 14.336 32 32v96c0 17.664-14.336 32-32 32h-96c-17.664 0-32-14.336-32-32v-96c0-17.664 14.336-32 32-32zM320 256h96c17.664 0 32 14.336 32 32v96c0 17.664-14.336 32-32 32h-96c-17.664 0-32-14.336-32-32v-96c0-17.664 14.336-32 32-32zM64 64c0-17.664 14.336-32 32-32h96c17.664 0 32 14.336 32 32v96c0 17.664-14.336 32-32 32h-96c-17.664 0-32-14.336-32-32v-96zM288 64c0-17.664 14.336-32 32-32h96c17.664 0 32 14.336 32 32v96c0 17.664-14.336 32-32 32h-96c-17.664 0-32-14.336-32-32v-96z" />
<glyph unicode="&#xe660;" d="M480 352h-190.656v-96h222.656v64c0 17.664-14.336 32-32 32zM32 352c-17.664 0-32-14.336-32-32v-64h224v96h-192zM32 224v-224c0-17.664 14.336-32 32-32h160v256h-192zM448-32c17.664 0 32 14.336 32 32v224h-190.656v-256h158.656zM255.968 384.256h0.096c-0.032-0.064-0.064-0.192-0.064-0.256h33.344c28.32 0 68.416 0 94.656 0 44.192 0 64 21.504 64 48s-19.808 48-64 48c-41.376 0-73.952-18.624-96-40.224-9.664 5.728-20.832 9.216-32.928 9.216-11.584 0-22.304-3.264-31.712-8.576-22.016 21.344-54.4 39.584-95.36 39.584-44.192 0-64-21.504-64-48s19.808-48 64-48c26.656 0 67.616 0 96 0h32c0 0.064-0.032 0.192-0.032 0.256zM416 432c0-13.216-17.408-16-32-16h-72.672c-0.256 0.448-0.48 0.928-0.736 1.344 16.256 15.808 40.896 30.656 73.408 30.656 14.592 0 32-2.784 32-16zM96 432c0 13.216 17.408 16 32 16 31.808 0 55.936-14.24 72.192-29.504-0.512-0.8-0.896-1.664-1.376-2.496h-70.816c-14.592 0-32 2.784-32 16z" />
<glyph unicode="&#xe661;" d="M448 416c-8.992 20-25.312 32-43.008 32h-300.992c-17.664 0-32-12-40-32l-64-256v-144.512c0-8.832 7.168-16 16-16h480c8.832 0 16 7.168 16 16v142.528l-0.416 1.472-63.584 256.512zM94.24 405.344c1.472 3.296 5.216 10.656 9.76 10.656h300.992c4.384 0 9.44-4.512 12.992-11.392l56.352-229.024c0-0.064-0.096 0-0.096-0.064 0-8.832-7.168-16-16-16-0.032 0-0.032-0.032-0.064-0.032h-122.176c-8.832 0-16-7.168-16-16v-31.488c0-8.832-7.168-16-16-16-0.32 0-0.64-0.416-0.96-0.512h-94.496c-0.224 0.096-0.224 0.512-0.544 0.512-8.832 0-16 7.168-16 16v31.488c0 8.832-7.168 16-16 16h-122.176c-0.032 0-0.032 0.032-0.064 0.032-8.832 0-16.256 7.168-16.256 16 0 0.224-0.256 0.064-0.32 0.224l57.056 229.6z" />
<glyph unicode="&#xe662;" d="M256 96l160 160h-96v192h-128l0.576-192h-96.576zM64 32v-64h384v128h-64v-64h-256v64h-64z" />
<glyph unicode="&#xe663;" d="M420.233 143.435c3.386 5.791 2.784 13.069-1.55 18.195l-263.183 312.738c-4.303 5.094-11.328 6.962-17.531 4.683-6.234-2.279-10.411-8.227-10.411-14.873v-412.86c0-6.835 4.367-12.879 10.854-15.031 1.614-0.538 3.291-0.791 4.968-0.791 4.905 0 9.651 2.279 12.689 6.392l70.756 95.311 49.080-140.404c6.297-17.974 25.98-27.467 43.954-21.17s27.467 25.979 21.17 43.954l-48.162 137.746 110.69-21.423c6.677-1.298 13.291 1.772 16.676 7.531z" horiz-adv-x="507" />
<glyph unicode="&#xe664;" d="M32 480c-17.664 0-32-14.336-32-32v-448c0-17.664 14.336-32 32-32h32v512h-32zM416 480h-320v-512h320c17.664 0 32 14.336 32 32v448c0 17.664-14.336 32-32 32zM270.24 356.672c26.752 0 48.416-21.696 48.416-48.416 0-26.752-21.696-48.448-48.416-48.448-26.752 0-48.448 21.696-48.448 48.448s21.696 48.416 48.448 48.416zM192 134.176c0 58.688 35.488 106.24 79.232 106.24s79.232-47.584 79.232-106.24-158.464-58.656-158.464 0zM480 448h32v-96h-32zM480 320h32v-96h-32zM480 192h32v-96h-32z" />
<glyph unicode="&#xe665;" d="M347.136 288l-60.992 170.752c-4.544 12.736-16.608 21.248-30.144 21.248s-25.6-8.512-30.144-21.248l-60.992-170.752h182.272zM427.136 64l-45.728 128h-250.816l-45.728-128zM32 32c-17.664 0-32-14.336-32-32s14.336-32 32-32h448c17.664 0 32 14.336 32 32s-14.336 32-32 32h-448z" />
<glyph unicode="&#xe666;" d="M256 480c-141.376 0-256-114.624-256-256s114.624-256 256-256 256 114.624 256 256-114.624 256-256 256zM381.568 327.52l-61.984-99.328c0.096-1.408 0.416-2.752 0.416-4.192 0-35.36-28.64-64-64-64-1.44 0-2.784 0.32-4.192 0.416l-99.328-61.984c-2.592-1.632-5.536-2.432-8.48-2.432-4.128 0-8.224 1.6-11.328 4.672-5.28 5.28-6.208 13.472-2.24 19.776l61.984 99.328c-0.096 1.44-0.416 2.784-0.416 4.224 0 35.36 28.64 64 64 64 1.44 0 2.784-0.32 4.192-0.416l99.328 61.984c6.208 3.936 14.496 3.008 19.776-2.272 5.312-5.248 6.24-13.44 2.272-19.776zM224 224c0-17.673 14.327-32 32-32s32 14.327 32 32c0 17.673-14.327 32-32 32s-32-14.327-32-32z" />
<glyph unicode="&#xe667;" d="M416 224c-1.12 0-2.176-0.288-3.264-0.32 2.144 10.432 3.264 21.248 3.264 32.32 0 88.352-71.648 160-160 160s-160-71.648-160-160c0-0.544 0.16-1.056 0.16-1.6-54.272-7.744-96.16-53.984-96.16-110.4 0-61.856 50.144-112 112-112h80.256c17.536 0 31.744 14.208 31.744 31.744v96.256h-67.904l99.904 128 99.904-128h-67.904v-96.256c0-17.536 14.208-31.744 31.744-31.744h96.256c53.024 0 96 42.976 96 96s-42.976 96-96 96z" />
<glyph unicode="&#xe668;" d="M416 224c-1.12 0-2.176-0.288-3.264-0.32 2.144 10.432 3.264 21.248 3.264 32.32 0 88.352-71.648 160-160 160s-160-71.648-160-160c0-0.544 0.16-1.056 0.16-1.6-54.272-7.744-96.16-53.984-96.16-110.4 0-56.384 41.792-102.56 96-110.4v-1.6h160l-99.904 128h67.904v128c0 17.664 14.336 32 32 32s32-14.336 32-32v-128h67.904l-99.904-128h160c53.024 0 96 42.976 96 96s-42.976 96-96 96z" />
<glyph unicode="&#xe669;" d="M416 224c-1.12 0-2.176-0.288-3.264-0.32 2.144 10.432 3.264 21.248 3.264 32.32 0 88.352-71.648 160-160 160s-160-71.648-160-160c0-0.544 0.16-1.056 0.16-1.6-54.272-7.744-96.16-53.984-96.16-110.4 0-56.384 41.792-102.56 96-110.4v-1.6h320c53.024 0 96 42.976 96 96s-42.976 96-96 96z" />
<glyph unicode="&#xe66a;" d="M101.644 378.356c-91.086-91.086-91.086-238.773 0-329.828s238.773-91.086 329.828 0c91.086 91.086 91.086 238.773 0 329.828-91.086 91.086-238.773 91.086-329.828 0zM390.458 198.87h-124.322c-0.219 0-0.406-0.125-0.625-0.125-8.622 0-15.619 6.997-15.619 15.618v156.308c0 8.622 6.997 15.618 15.619 15.618s15.618-6.997 15.618-15.618v-140.565h109.329c8.622 0 15.618-6.997 15.618-15.618s-6.997-15.618-15.618-15.618z" />
<glyph unicode="&#xe66b;" d="M480 352h-384c-2.496 0-4.672-0.864-7.008-1.408l-12.416 53.056c-1.696 7.232-8.128 12.352-15.584 12.352h-45.92c-8.832 0-16-7.168-16-16s7.136-16 16-16h33.248l19.872-84.992 27.808-139.008c0-1.152 0.544-2.144 0.672-3.264l-16.288-73.28c-1.056-4.736 0.096-9.696 3.136-13.472 3.040-3.808 7.616-5.984 12.48-5.984h363.008c8.832 0 16 7.168 16 16s-7.168 16-16 16h-343.040l7.328 32.96c1.6-0.256 3.040-0.96 4.704-0.96h291.68c17.664 0 28.32 3.488 36.832 24l51.968 159.424c9.024 28.576-10.784 40.576-28.48 40.576zM96 0c0-17.673 14.327-32 32-32s32 14.327 32 32c0 17.673-14.327 32-32 32s-32-14.327-32-32zM384 0c0-17.673 14.327-32 32-32s32 14.327 32 32c0 17.673-14.327 32-32 32s-32-14.327-32-32z" horiz-adv-x="519" />
<glyph unicode="&#xe66c;" d="M480 320h-64c0 0-18.496 0-32 32-6.88 16.288-14.336 32-32 32h-128c-17.664 0-25.344-15.616-32-32-12.992-32-32-32-32-32h-32c0 17.664-14.336 32-32 32h-32c-17.664 0-32-14.336-32-32-17.664 0-32-14.336-32-32v-64h177.76c22.176 38.112 62.976 64 110.24 64s88.064-25.888 110.24-64h113.76v64c0 17.664-14.336 32-32 32zM112 256h-64c-8.832 0-16 7.168-16 16s7.168 16 16 16h64c8.832 0 16-7.168 16-16s-7.168-16-16-16zM192 160c0-53.019 42.981-96 96-96s96 42.981 96 96c0 53.019-42.981 96-96 96s-96-42.981-96-96zM416 160c0-70.688-57.312-128-128-128s-128 57.312-128 128c0 11.104 1.856 21.728 4.512 32h-164.512v-160c0-17.664 14.336-32 32-32h448c17.664 0 32 14.336 32 32v160h-100.512c2.656-10.272 4.512-20.896 4.512-32z" />
<glyph unicode="&#xe66d;" d="M80.672-32h302.56c17.664 0 32 14.336 32 32v336c0 8.832-7.168 16-16 16 0 0 0 0 0 0h-271.232c-0.8 0-2.368-0.128-3.872-0.224l-43.456 0.224c-26.848 0-48.672 20.512-48.672 47.328 0 26.848 21.152 48.672 48 48.672h368v-368c0-8.832 6.4-16 15.264-16s16.736 7.168 16.736 16v384c0 8.832-7.904 16-16.736 16h-382.592c-44.16 0-79.904-35.488-80.544-79.488l-0.128 0.16v-352c0-44.544 36.128-80.672 80.672-80.672z" />
<glyph unicode="&#xe66e;" d="M96-32h320c17.664 0 32 14.336 32 32v352c0 17.664-14.336 32-32 32h-64.16c-0.768 53.152-43.328 96-95.84 96s-95.072-42.848-95.84-96h-64.16c-17.664 0-32-14.336-32-32v-352c0-17.664 14.336-32 32-32zM304 288h-96c-8.832 0-16 7.168-16 16s7.168 16 16 16h96c8.832 0 16-7.168 16-16s-7.168-16-16-16zM256 448c34.784 0 63.072-28.576 63.84-64h-127.68c0.768 35.424 29.056 64 63.84 64z" />
<glyph unicode="&#xe66f;" d="M480 416h-448c-17.664 0-32-14.336-32-32v-64h512v64c0 17.664-14.336 32-32 32zM32 0c0-17.664 14.336-32 32-32h384c17.664 0 32 14.336 32 32v288h-448v-288zM192 224h128c17.664 0 32-14.336 32-32s-14.336-32-32-32h-128c-17.664 0-32 14.336-32 32s14.336 32 32 32z" />
<glyph unicode="&#xe670;" d="M302.733 480c-114.401 0-207.132-92.731-207.132-207.132 0-49.234 17.24-94.357 45.919-129.92l-135.018-135.019c-8.636-8.636-8.636-22.657 0-31.293s22.657-8.636 31.293 0l135.018 135.019c35.563-28.68 80.686-45.919 129.92-45.919 114.401 0 207.132 92.731 207.132 207.132s-92.731 207.132-207.132 207.132zM398.332 256.934h-191.2c-8.795 0-15.934 7.138-15.934 15.934s7.138 15.934 15.934 15.934h191.2c8.795 0 15.933-7.138 15.933-15.934s-7.138-15.934-15.933-15.934z" />
<glyph unicode="&#xe671;" d="M302.733 480c-114.401 0-207.132-92.731-207.132-207.132 0-49.234 17.24-94.357 45.919-129.92l-135.018-135.019c-8.636-8.636-8.636-22.657 0-31.293s22.657-8.636 31.293 0l135.018 135.019c35.563-28.68 80.686-45.919 129.92-45.919 114.401 0 207.132 92.731 207.132 207.132s-92.731 207.132-207.132 207.132zM398.332 256.934h-79.666v-79.666c0-8.795-7.138-15.933-15.933-15.933s-15.933 7.138-15.933 15.933v79.666h-79.666c-8.795 0-15.934 7.138-15.934 15.933s7.138 15.934 15.934 15.934h79.666v79.666c0 8.795 7.138 15.933 15.933 15.933s15.933-7.138 15.933-15.933v-79.666h79.666c8.795 0 15.933-7.138 15.933-15.934s-7.138-15.933-15.933-15.933z" />
<glyph unicode="&#xe672;" d="M326.816 480c-5.28 0-11.328-1.632-18.272-5.824 0 0-133.44-116.416-139.232-122.176h-73.312c-17.664 0-32-14.336-32-32v-196.064c0-17.664 14.336-32 32-32h73.312c5.792-5.76 139.232-118.080 139.232-118.080 6.944-4.224 12.992-5.856 18.272-5.856 0.8 0 1.6 0.032 2.368 0.096 11.84 1.12 20.288 11.040 22.816 21.504v468.768c-2.496 10.496-10.976 20.416-22.816 21.504-0.768 0.096-1.536 0.128-2.368 0.128zM320 6.016c-49.92 42.048-122.24 103.136-128.128 108.576-5.984 5.984-14.112 9.312-22.592 9.312h-73.28v196.096h73.312c8.192 0 16.384 3.424 22.304 9.056 5.824 5.536 78.144 68.8 128.384 112.64v-435.68zM401.312 168.096c-7.904-4-11.072-13.6-7.104-21.504 2.816-5.568 8.448-8.8 14.272-8.8 2.432 0 4.864 0.544 7.2 1.696 32.352 16.32 52.448 48.672 52.448 84.512s-20.096 68.192-52.448 84.512c-7.904 4-17.504 0.8-21.472-7.104s-0.8-17.504 7.104-21.504c21.472-10.816 34.816-32.224 34.816-55.904s-13.344-45.088-34.816-55.904z" />
<glyph unicode="&#xe673;" d="M328.789 479.904c-5.814 0.543-12.618-0.863-20.637-5.719 0 0-133.215-116.22-138.998-121.97h-73.317c-17.634 0-31.946-14.312-31.946-31.946v-195.733c0-17.634 14.312-31.946 31.946-31.946h73.317c5.782-5.75 138.998-117.881 138.998-117.881 8.019-4.856 14.823-6.262 20.637-5.719 11.82 1.118 20.126 11.022 22.65 21.468 0.159 1.022 0.159 466.956 0 467.947-2.524 10.478-10.861 20.382-22.65 21.5zM400.636 168.622c-7.89-3.993-11.053-13.577-7.092-21.468 2.812-5.558 8.434-8.785 14.248-8.785 2.428 0 4.856 0.543 7.188 1.693 32.298 16.293 52.36 48.59 52.36 84.37s-20.062 68.077-52.36 84.37c-7.89 3.993-17.474 0.798-21.436-7.092s-0.798-17.474 7.092-21.468c21.436-10.798 34.757-32.169 34.757-55.81s-13.322-45.012-34.757-55.81z" horiz-adv-x="511" />
<glyph unicode="&#xe674;" d="M32 91.936h73.312c5.792-5.76 139.232-118.080 139.232-118.080 6.944-4.224 12.992-5.856 18.272-5.856 0.8 0 1.6 0.032 2.368 0.096 11.84 1.12 20.288 11.040 22.816 21.504v468.768c-2.496 10.496-10.976 20.416-22.816 21.536-0.768 0.064-1.536 0.096-2.368 0.096-5.28 0-11.328-1.632-18.272-5.824 0 0-133.44-116.416-139.232-122.176h-73.312c-17.664 0-32-14.336-32-32v-196.064c0-17.696 14.336-32 32-32zM32 128v192h73.312c8.192 0 16.384 3.424 22.304 9.056 5.824 5.536 78.144 68.8 128.384 112.64v-435.68c-49.92 42.048-122.24 103.136-128.128 108.576-5.984 5.984-14.112 9.312-22.592 9.312h-73.28v4.096zM337.312 168.096c-7.904-4-11.072-13.6-7.104-21.504 2.816-5.568 8.448-8.8 14.272-8.8 2.432 0 4.864 0.544 7.2 1.696 32.352 16.32 52.448 48.672 52.448 84.512s-20.096 68.192-52.448 84.512c-7.904 4-17.504 0.8-21.472-7.104s-0.8-17.504 7.104-21.504c21.472-10.816 34.816-32.224 34.816-55.904s-13.344-45.088-34.816-55.904zM315.296 40.352c1.504-7.648 8.192-12.928 15.68-12.928 1.024 0 2.048 0.096 3.104 0.288 93.824 18.304 161.92 100.864 161.92 196.288s-68.096 177.984-161.952 196.288c-8.512 1.728-17.088-3.968-18.752-12.64-1.696-8.672 3.968-17.088 12.64-18.784 78.848-15.36 136.064-84.704 136.064-164.864s-57.216-149.504-136.064-164.864c-8.672-1.696-14.336-10.112-12.64-18.784z" />
<glyph unicode="&#xe675;" d="M31.946 92.589h73.317c5.782-5.75 138.998-117.881 138.998-117.881 8.018-4.856 14.823-6.262 20.637-5.719 11.82 1.118 20.126 11.022 22.65 21.468 0.128 1.022 0.128 466.924-0.032 467.947-2.492 10.478-10.829 20.382-22.618 21.5-5.814 0.543-12.619-0.863-20.637-5.719 0 0-133.215-116.22-138.998-121.97h-73.317c-17.634 0-31.946-14.312-31.946-31.946v-195.733c0-17.666 14.312-31.946 31.946-31.946zM336.744 168.622c-7.89-3.993-11.053-13.577-7.092-21.468 2.812-5.558 8.434-8.785 14.248-8.785 2.428 0 4.856 0.543 7.188 1.693 32.298 16.293 52.359 48.59 52.359 84.37s-20.062 68.077-52.36 84.37c-7.89 3.993-17.442 0.798-21.436-7.092-3.962-7.89-0.798-17.474 7.092-21.468 21.436-10.798 34.757-32.169 34.757-55.81s-13.322-45.012-34.757-55.81zM314.765 41.092c1.502-7.635 8.178-12.906 15.654-12.906 1.022 0 2.045 0.096 3.099 0.288 93.666 18.273 161.647 100.694 161.647 195.958s-67.981 177.684-161.679 195.958c-8.529 1.725-17.059-3.962-18.721-12.618-1.693-8.658 3.962-17.059 12.618-18.752 78.715-15.334 135.835-84.562 135.835-164.587s-57.12-149.252-135.835-164.587c-8.658-1.693-14.312-10.095-12.618-18.752z" horiz-adv-x="511" />
<glyph unicode="&#xe676;" d="M32 91.936h73.312c5.792-5.76 139.232-118.080 139.232-118.080 6.944-4.224 12.992-5.856 18.272-5.856 0.8 0 1.6 0.032 2.368 0.096 11.84 1.12 20.288 11.040 22.816 21.504v468.768c-2.496 10.496-10.976 20.416-22.816 21.536-0.768 0.064-1.536 0.096-2.368 0.096-5.28 0-11.328-1.632-18.272-5.824 0 0-133.44-116.416-139.232-122.176h-73.312c-17.664 0-32-14.336-32-32v-196.064c0-17.696 14.336-32 32-32zM32 128v192h73.312c8.192 0 16.384 3.424 22.304 9.056 5.824 5.536 78.144 68.8 128.384 112.64v-435.68c-49.92 42.048-122.24 103.136-128.128 108.576-5.984 5.984-14.112 9.312-22.592 9.312h-73.28v4.096zM506.272 306.848c-7.616 7.616-20 7.616-27.616 0l-55.232-55.232-55.232 55.232c-7.616 7.616-20 7.616-27.616 0s-7.616-20 0-27.616l55.232-55.232-55.232-55.232c-7.616-7.616-7.616-20 0-27.616s20-7.616 27.616 0l55.232 55.232 55.232-55.232c7.616-7.616 20-7.616 27.616 0s7.616 20 0 27.616l-55.232 55.232 55.232 55.232c7.648 7.616 7.648 20 0 27.616z" horiz-adv-x="514" />
<glyph unicode="&#xe677;" d="M31.946 92.589h73.317c5.782-5.75 138.998-117.881 138.998-117.881 8.018-4.856 14.823-6.262 20.637-5.719 11.82 1.118 20.126 11.022 22.65 21.468 0.128 1.022 0.128 466.924-0.032 467.947-2.492 10.478-10.829 20.382-22.618 21.5-5.814 0.543-12.619-0.863-20.637-5.719 0 0-133.215-116.22-138.998-121.97h-73.317c-17.634 0-31.946-14.312-31.946-31.946v-195.733c0-17.666 14.312-31.946 31.946-31.946zM505.419 307.139c-7.603 7.603-19.966 7.603-27.57 0l-55.139-55.139-55.139 55.139c-7.603 7.603-19.966 7.603-27.57 0s-7.603-19.966 0-27.57l55.139-55.139-55.139-55.139c-7.603-7.603-7.603-19.966 0-27.57s19.966-7.603 27.57 0l55.139 55.139 55.139-55.139c7.603-7.603 19.966-7.603 27.57 0s7.603 19.966 0 27.57l-55.139 55.139 55.139 55.139c7.635 7.603 7.635 19.966 0 27.57z" horiz-adv-x="513" />
<glyph unicode="&#xe678;" d="M416 448h-64c0 17.664-14.336 32-32 32h-96c-17.664 0-32-14.336-32-32h-64c-17.664 0-32-14.336-32-32h352c0 17.664-14.336 32-32 32zM96 0c0-17.664 14.336-32 32-32h288c17.664 0 32 14.336 32 32v384h-352v-384zM128 352h288v-352h-288v352zM176 320c-8.832 0-16-7.168-16-16v-256c0-8.832 7.168-16 16-16s16 7.168 16 16v256c0 8.832-7.168 16-16 16zM272 320c-8.832 0-16-7.168-16-16v-256c0-8.832 7.168-16 16-16s16 7.168 16 16v256c0 8.832-7.168 16-16 16zM368 320c-8.832 0-16-7.168-16-16v-256c0-8.832 7.168-16 16-16s16 7.168 16 16v256c0 8.832-7.168 16-16 16z" />
<glyph unicode="&#xe679;" d="M13.556 49.844c-18.735-18.735-18.735-49.074 0-67.808 9.367-9.367 21.643-14.035 33.92-14.035s24.553 4.668 33.92 14.035l157.452 157.452-67.84 67.808-157.452-157.452zM407.075 341.666l68.512 35.455 35.935 69.407-33.473 33.472-69.407-35.935-35.455-68.512-83.505-83.505 33.888-33.888zM422.068 159.661c-2.174 0.128-4.252 0.639-6.458 0.639-11.701 0-22.795-2.398-33.153-6.234l-196.871 196.871c3.837 10.359 6.234 21.452 6.234 33.153 0 2.206-0.512 4.284-0.639 6.458-3.389 49.905-44.502 89.452-95.27 89.452-14.77 0-28.613-3.612-41.114-9.591l63.717-63.717c3.357-3.357 5.659-7.321 7.194-11.509 4.188-11.35 1.918-24.553-7.194-33.697-6.234-6.234-14.418-9.367-22.603-9.367-3.772 0-7.513 0.831-11.094 2.174-4.188 1.566-8.153 3.837-11.509 7.193l-63.717 63.716c-5.979-12.5-9.591-26.344-9.591-41.113 0-50.769 39.547-91.882 89.452-95.27 2.174-0.128 4.252-0.639 6.458-0.639 11.701 0 22.794 2.398 33.153 6.234l196.872-196.872c-3.837-10.358-6.234-21.452-6.234-33.153 0-2.206 0.512-4.284 0.639-6.458 3.389-49.905 44.502-89.452 95.271-89.452 14.77 0 28.613 3.613 41.113 9.591l-63.716 63.716c-3.357 3.357-5.659 7.321-7.194 11.509-4.188 11.349-1.918 24.553 7.193 33.697 6.234 6.234 14.418 9.367 22.603 9.367 3.772 0 7.513-0.831 11.094-2.174 4.188-1.567 8.152-3.837 11.509-7.193l63.716-63.716c5.978 12.5 9.591 26.344 9.591 41.113 0 50.769-39.547 91.882-89.452 95.271z" horiz-adv-x="517" />
<glyph unicode="&#xe67a;" d="M480 320h-128c0-17.664-14.336-32-32-32h160v-64h-160c17.664 0 32-14.336 32-32h128v-192h-448v192h128c0 17.664 14.336 32 32 32h-160v64h160c-17.664 0-32 14.336-32 32h-128c-17.664 0-32-14.336-32-32v-288c0-17.664 14.336-32 32-32h448c17.664 0 32 14.336 32 32v288c0 17.664-14.336 32-32 32zM192 288h128c17.664 0 32 14.336 32 32v32c0 17.664-14.336 32-32 32h-128c-17.664 0-32-14.336-32-32v-32c0-17.664 14.336-32 32-32zM192 352h128v-32h-128v32zM160 192v-32c0-17.664 14.336-32 32-32h128c17.664 0 32 14.336 32 32v32c0 17.664-14.336 32-32 32h-128c-17.664 0-32-14.336-32-32zM320 160h-128v32h128v-32z" />
<glyph unicode="&#xe67b;" d="M416 96c3.776 0 7.52-0.832 11.104-2.176 4.192-1.568 8.16-3.84 11.52-7.2l63.776-63.776c5.984 12.512 9.6 26.368 9.6 41.152 0 50.816-39.584 91.968-89.536 95.36-2.176 0.128-4.256 0.64-6.464 0.64-11.712 0-22.816-2.4-33.184-6.24l-197.056 197.056c3.84 10.368 6.24 21.472 6.24 33.184 0 2.208-0.512 4.288-0.64 6.464-3.392 49.952-44.544 89.536-95.36 89.536-14.784 0-28.64-3.616-41.152-9.6l63.776-63.776c3.36-3.36 5.664-7.328 7.2-11.52 4.192-11.36 1.92-24.576-7.2-33.728-6.24-6.24-14.432-9.376-22.624-9.376-3.776 0-7.52 0.832-11.104 2.176-4.192 1.568-8.16 3.84-11.52 7.2l-63.776 63.776c-5.984-12.512-9.6-26.368-9.6-41.152 0-50.816 39.584-91.968 89.536-95.36 2.176-0.128 4.256-0.64 6.464-0.64 11.712 0 22.816 2.4 33.184 6.24l197.056-197.056c-3.84-10.368-6.24-21.472-6.24-33.184 0-2.208 0.512-4.288 0.64-6.464 3.392-49.952 44.544-89.536 95.36-89.536 14.784 0 28.64 3.616 41.152 9.6l-63.776 63.776c-3.36 3.36-5.664 7.328-7.2 11.52-4.192 11.36-1.92 24.576 7.2 33.728 6.24 6.24 14.432 9.376 22.624 9.376z" />
<glyph unicode="&#xe67c;" d="M465.106 480c-0.192 0-0.384 0-0.576 0-0.096 0-0.192 0-0.288 0-0.032 0-0.064 0-0.096 0-0.16 0-0.288 0-0.416 0-0.064 0-0.128 0-0.192 0h-169.152c-4.894-0.256-16.026-7.901-17.466-9.341l-203.603-203.571c-12.475-12.476-12.475-32.691 0-45.167l25.398-25.399-25.398-25.399c-12.475-12.476-12.475-32.692 0-45.167l148.617-148.616c6.238-6.238 14.394-9.341 22.583-9.341 8.157 0 16.346 3.103 22.584 9.341l203.571 203.603c1.471 1.44 9.149 11.292 9.149 17.433v265.724c0.448 8.925-5.95 15.898-14.714 15.898zM448.184 203.784c-0.096-0.16-0.16-0.256-0.128-0.256 0 0 0 0 0 0l-203.507-203.603-148.617 148.553 25.398 25.399 100.603-100.603c6.238-6.238 14.394-9.341 22.584-9.341 8.157 0 16.346 3.103 22.584 9.341l181.084 181.084v-50.573zM448.184 352.048v-52.3c-0.096-0.16-0.16-0.256-0.128-0.256v0c0 0 0 0 0 0l-203.507-203.603-148.617 148.553 202.228 202.196c0.608 0.448 1.344 0.927 2.079 1.375h147.945v-95.964zM384.208 400.158c0-8.833 7.161-15.994 15.994-15.994s15.994 7.161 15.994 15.994c0 8.833-7.161 15.994-15.994 15.994s-15.994-7.161-15.994-15.994z" />
<glyph unicode="&#xe67d;" d="M464.928 447.84c-0.288 0-0.576 0-0.864 0-0.256 0-0.48 0.032-0.736 0h-201.184c-4.896-0.224-16.032-7.872-17.472-9.312l-235.328-235.328c-12.48-12.48-12.48-32.704 0-45.184l180.672-180.672c6.272-6.24 14.432-9.344 22.592-9.344s16.352 3.104 22.592 9.344l235.328 235.328c1.44 1.44 9.472 11.328 9.472 17.472v201.824c0.448 8.928-6.304 15.872-15.072 15.872zM448 236.128c-0.48-0.736-0.96-1.504-1.408-2.112l-233.952-234.016-180.672 180.576 234.016 234.016c0.64 0.448 1.376 0.928 2.144 1.408h179.872v-179.872zM384 368c0-8.837 7.163-16 16-16s16 7.163 16 16c0 8.837-7.163 16-16 16s-16-7.163-16-16z" />
<glyph unicode="&#xe67e;" d="M416-32c17.664 0 32 14.336 32 32v448c0 17.664-14.336 32-32 32h-320c-17.664 0-32-14.336-32-32v-448c0-17.664 14.336-32 32-32h320zM256-17.984c-9.952 0-17.984 8.064-17.984 17.984s8.032 17.984 17.984 17.984 17.984-8.032 17.984-17.984-8.032-17.984-17.984-17.984zM128 416h256v-384h-256v384z" />
<glyph unicode="&#xe67f;" d="M511.456 417.664c-1.408 16.48-14.72 30.336-31.456 30.336h-448c-16.736 0-30.048-13.856-31.456-30.336h-0.544v-417.664c0-17.664 14.336-32 32-32h448c17.664 0 32 14.336 32 32v417.664h-0.544zM192 256v96h128v-96h-128zM320 224v-98.656h-128v98.656h128zM160 352v-96h-128v96h128zM32 224h128v-98.656h-128v98.656zM32 0v96h128v-96h-128zM192 0v96h128v-96h-128zM480 0h-128v96h128v-96zM480 125.344h-128v98.656h128v-98.656zM480 256h-128v96h128v-96z" />
<glyph unicode="&#xe680;" d="M256 480c-141.376 0-256-114.624-256-256s114.624-256 256-256 256 114.624 256 256-114.624 256-256 256zM352 160c0-17.664-14.336-32-32-32h-128c-17.664 0-32 14.336-32 32v128c0 17.664 14.336 32 32 32h128c17.664 0 32-14.336 32-32v-128z" />
<glyph unicode="&#xe681;" d="M510.144 272.864c-3.776 11.584-13.792 20.032-25.856 21.76l-137.92 20.032-61.664 124.992c-5.408 10.944-16.512 17.856-28.704 17.856s-23.296-6.912-28.704-17.856l-61.664-124.96-137.92-20.032c-12.064-1.76-22.080-10.208-25.824-21.792-3.776-11.584-0.64-24.288 8.096-32.8l99.808-97.28-23.552-137.376c-2.048-12 2.88-24.128 12.736-31.296 5.536-4.064 12.128-6.112 18.784-6.112 5.088 0 10.208 1.216 14.88 3.68l123.36 64.864 123.36-64.864c4.672-2.464 9.792-3.68 14.88-3.68 6.624 0 13.248 2.048 18.816 6.112 9.856 7.168 14.784 19.296 12.736 31.296l-23.552 137.376 99.808 97.28c8.736 8.512 11.872 21.216 8.096 32.8zM367.84 153.952l26.4-153.952-138.24 72.672v352.832l69.12-140.064 154.56-22.464-111.84-109.024z" horiz-adv-x="516" />
<glyph unicode="&#xe682;" d="M256 50.432v400.128l-78.4-158.848-175.296-25.472 126.848-123.648-29.952-174.592z" />
<glyph unicode="&#xe683;" d="M510.144 272.864c-3.776 11.584-13.792 20.032-25.824 21.792l-137.92 20.032-61.696 124.96c-5.408 10.944-16.512 17.856-28.704 17.856s-23.296-6.912-28.704-17.856l-61.664-124.96-137.92-20.032c-12.064-1.76-22.080-10.208-25.824-21.792-3.776-11.584-0.64-24.288 8.096-32.8l99.808-97.28-23.552-137.376c-2.048-12 2.88-24.128 12.736-31.296 5.536-4.064 12.128-6.112 18.784-6.112 5.088 0 10.208 1.216 14.88 3.68l123.36 64.864 123.36-64.864c4.672-2.464 9.792-3.68 14.88-3.68 6.624 0 13.248 2.048 18.816 6.112 9.856 7.168 14.784 19.296 12.736 31.296l-23.552 137.376 99.808 97.28c8.704 8.48 11.84 21.216 8.096 32.8zM367.84 153.952l26.4-153.952-138.24 72.672-138.24-72.672 26.4 153.952-111.84 109.024 154.56 22.464 69.12 140.064 69.12-140.064 154.56-22.464-111.84-109.024z" horiz-adv-x="516" />
<glyph unicode="&#xe684;" d="M332.096 291.712l-78.4 158.848-78.4-158.848-175.296-25.472 126.848-123.648-29.952-174.592 156.8 82.432 156.8-82.432-29.952 174.592 126.848 123.648z" />
<glyph unicode="&#xe685;" d="M83.744-29.568c3.968-1.632 8.128-2.432 12.256-2.432 8.32 0 16.512 3.264 22.624 9.376l137.376 137.376 137.376-137.376c6.112-6.112 14.304-9.376 22.624-9.376 4.128 0 8.288 0.8 12.224 2.432 11.968 4.96 19.776 16.64 19.776 29.568v448c0 17.664-14.336 32-32 32h-320c-17.664 0-32-14.336-32-32v-448c0-12.928 7.808-24.608 19.744-29.568zM256 160l-160-160v352h320v-352l-160 160zM416 448v-64h-320v64h320z" />
<glyph unicode="&#xe686;" d="M479.584 480c-17.92 0-32.416-14.528-32.416-32.416v-75.584c-36.544 44.256-78.656 108-194.56 108-139.264 0-252.608-113.312-252.608-252.608s113.344-252.608 252.608-252.608c109.376 0 205.824 69.856 240.064 173.824 5.664 17.312-3.744 35.968-21.056 41.664s-35.968-3.712-41.664-21.024c-25.28-76.832-96.544-128.448-177.344-128.448-102.912 0-186.624 83.712-186.624 186.624s83.712 186.24 186.624 186.24c72.864 0 113.344-45.344 146.368-92.896h-81.504c-17.92 0-32.416-14.528-32.416-32.416 0-17.92 14.528-32.416 32.416-32.416h162.112c17.888-0.064 32.416 14.464 32.416 32.352v159.296c0 17.888-14.528 32.416-32.416 32.416z" />
<glyph unicode="&#xe687;" d="M256 480c-141.376 0-256-114.624-256-256s114.624-256 256-256 256 114.624 256 256-114.624 256-256 256zM256 0c-123.52 0-224 100.48-224 224s100.48 224 224 224 224-100.48 224-224-100.48-224-224-224zM205.024 307.584c-2.784 2.368-5.28 4.032-7.456 5.28-0.096 0.064-0.16 0.16-0.256 0.192-0.16 0.096-0.32 0.128-0.48 0.192-3.168 1.76-5.44 2.592-5.44 2.592l0.16-0.384c-5.152 2.112-10.56 3.616-16.448 3.616-26.048 0-47.136-21.92-47.136-48.96s21.12-48.96 47.136-48.96c8.352 0 16.064 2.432 22.88 6.4-2.336-26.176-15.52-64.352-63.84-103.264-6.752-5.472-8-15.584-2.752-22.592 3.072-4.096 7.648-6.24 12.256-6.24 3.328 0 6.656 1.088 9.504 3.392 59.296 47.84 74.112 96.992 76.096 129.824 3.392 41.984-9.344 64.064-20.992 75.584-1.056 1.12-2.048 2.336-3.232 3.328zM360.16 307.584c-2.784 2.368-5.28 4.032-7.456 5.28-0.096 0.064-0.16 0.128-0.256 0.192-0.16 0.096-0.32 0.128-0.48 0.192-3.168 1.728-5.44 2.592-5.44 2.592l0.16-0.384c-5.152 2.112-10.592 3.616-16.448 3.616-26.048 0-47.136-21.92-47.136-48.96s21.088-48.96 47.136-48.96c8.352 0 16.064 2.432 22.88 6.4-2.336-26.176-15.52-64.352-63.84-103.264-6.784-5.472-8-15.584-2.752-22.592 3.072-4.096 7.648-6.24 12.256-6.24 3.328 0 6.656 1.088 9.504 3.392 59.296 47.84 74.112 96.992 76.096 129.824 3.392 41.984-9.376 64.064-20.992 75.584-1.056 1.12-2.048 2.336-3.232 3.328z" />
<glyph unicode="&#xe688;" d="M127.968 270.112c0-27.040 21.12-48.96 47.136-48.96 8.352 0 16.064 2.432 22.88 6.4-2.336-26.176-15.52-64.352-63.84-103.264-6.752-5.472-8-15.584-2.752-22.592 3.072-4.096 7.648-6.24 12.256-6.24 3.328 0 6.656 1.088 9.504 3.392 59.296 47.84 74.112 96.992 76.096 129.824 3.392 41.984-9.344 64.064-20.992 75.584-1.056 1.12-2.048 2.336-3.232 3.328-2.784 2.368-5.28 4.032-7.456 5.28-0.096 0.064-0.16 0.16-0.256 0.192-0.16 0.096-0.32 0.128-0.48 0.192-3.168 1.76-5.44 2.592-5.44 2.592l0.16-0.384c-5.152 2.112-10.56 3.616-16.448 3.616-26.048 0-47.136-21.92-47.136-48.96zM283.104 270.112c0-27.040 21.088-48.96 47.136-48.96 8.352 0 16.064 2.432 22.88 6.4-2.336-26.176-15.52-64.352-63.84-103.264-6.784-5.472-8-15.584-2.752-22.592 3.072-4.096 7.648-6.24 12.256-6.24 3.328 0 6.656 1.088 9.504 3.392 59.296 47.84 74.112 96.992 76.096 129.824 3.392 41.984-9.376 64.064-20.992 75.584-1.088 1.12-2.080 2.336-3.264 3.328-2.784 2.368-5.28 4.032-7.456 5.28-0.096 0.064-0.16 0.128-0.256 0.192-0.16 0.096-0.32 0.128-0.48 0.192-3.168 1.728-5.44 2.592-5.44 2.592l0.16-0.384c-5.152 2.112-10.592 3.616-16.448 3.616-26.016 0-47.104-21.92-47.104-48.96z" />
<glyph unicode="&#xe689;" d="M256 480c-141.376 0-256-114.624-256-256s114.624-256 256-256 256 114.624 256 256-114.624 256-256 256zM256 0c-123.52 0-224 100.48-224 224s100.48 224 224 224 224-100.48 224-224-100.48-224-224-224zM220.384 63.552c0 0 0 0 0 0 0-18.204 14.756-32.96 32.96-32.96s32.96 14.757 32.96 32.96c0 0 0 0 0 0s0 0 0 0c0 18.204-14.757 32.96-32.96 32.96s-32.96-14.757-32.96-32.96c0 0 0 0 0 0zM253.344 416c-62.048 0-128-45.088-128-128.672 0-17.664 14.304-32 32-32s32 14.336 32 32c0 44.448 33.184 64.672 64 64.672 23.904 0 64-7.008 64-54.016 0-16.672-4.384-36.128-36.768-53.984-22.016-12.064-59.232-43.392-59.232-84 0-17.664 14.304-32 32-32s32 14.336 32 32c0 5.952 12.672 20.576 26.080 27.968 46.368 25.536 69.92 62.56 69.92 110.016 0 81.536-64.288 118.016-128 118.016z" />
<glyph unicode="&#xe68a;" d="M256-32c141.376 0 256 114.624 256 256s-114.624 256-256 256-256-114.624-256-256 114.624-256 256-256zM256 416c63.712 0 128-36.48 128-118.016 0-47.456-23.52-84.512-69.888-110.016-13.44-7.392-26.112-22.016-26.112-27.968 0-17.664-14.336-32-32-32s-32 14.336-32 32c0 40.608 37.248 71.936 59.264 84.032 32.352 17.856 36.736 37.312 36.736 53.952 0 47.008-40.096 54.016-64 54.016-30.816 0-64-20.224-64-64.672 0-17.664-14.336-32-32-32s-32 14.336-32 32c0 83.584 65.952 128.672 128 128.672zM256 30.592c-18.208 0-32.96 14.752-32.96 32.96s14.752 32.96 32.96 32.96 32.96-14.752 32.96-32.96-14.752-32.96-32.96-32.96z" />
<glyph unicode="&#xe68b;" d="M220.384 63.552c0 0 0 0 0 0 0-18.204 14.756-32.96 32.96-32.96s32.96 14.757 32.96 32.96c0 0 0 0 0 0s0 0 0 0c0 18.204-14.757 32.96-32.96 32.96s-32.96-14.757-32.96-32.96c0 0 0 0 0 0zM311.424 187.968c46.368 25.536 69.92 62.56 69.92 110.016 0 81.504-64.288 118.016-128 118.016-62.048 0-128-45.088-128-128.672 0-17.664 14.304-32 32-32s32 14.336 32 32c0 44.448 33.184 64.672 64 64.672 23.904 0 64-7.008 64-54.016 0-16.672-4.384-36.128-36.768-53.984-22.016-12.064-59.232-43.392-59.232-84 0-17.664 14.304-32 32-32s32 14.336 32 32c0 5.952 12.64 20.576 26.080 27.968z" />
<glyph unicode="&#xe68c;" d="M139.040 195.648c-6.816-7.744-9.472-18.304-7.168-28.352s9.344-18.368 18.848-22.336c22.72-9.504 61.344-15.52 105.312-16.736 0-0.064-0.032-0.128-0.032-0.224v-96c0-17.664 7.168-64 16-64s16 46.336 16 64v96c0 0.096-0.032 0.16-0.032 0.256 43.968 1.184 82.592 7.232 105.312 16.736 9.504 3.968 16.544 12.288 18.848 22.336s-0.352 20.608-7.168 28.32c-13.12 14.88-36.032 23.104-52.96 27.392v165.76c16.736 5.664 30.944 12.768 42.176 21.056 9.6 7.072 14.464 18.944 12.608 30.72s-10.112 21.568-21.44 25.376c-15.616 5.248-51.136 14.048-113.344 14.048-65.76 0-102.080-10.144-114.656-14.496-11.168-3.872-19.296-13.6-21.12-25.28-1.824-11.648 2.944-23.392 12.384-30.528 11.392-8.544 25.952-15.776 43.36-21.472h0.032v-165.184c-16.896-4.256-39.84-12.48-52.96-27.392zM201.952 418.624c-16.704 5.472-27.552 11.712-34.112 16.672 17.024 5.888 51.488 12.704 104.16 12.704 51.648 0 85.856-6.56 103.2-12.384-6.784-4.992-17.536-11.104-33.472-16.512l-21.728-7.36v-213.6l24.128-6.112c17.696-4.48 31.072-11.008 36.8-17.536-14.816-6.176-50.816-14.496-108.928-14.496s-94.112 8.32-108.928 14.496c5.76 6.528 19.136 13.056 36.8 17.536l24.128 6.112v213.28l-22.048 7.2z" />
<glyph unicode="&#xe68d;" d="M272 448c-132.544 0-240-107.456-240-240s107.456-240 240-240 240 107.456 240 240-107.456 240-240 240zM400 192h-112v-112c0-8.832-7.168-16-16-16s-16 7.168-16 16v112h-112c-8.832 0-16 7.168-16 16s7.168 16 16 16h112v112c0 8.832 7.168 16 16 16s16-7.168 16-16v-112h112c8.832 0 16-7.168 16-16s-7.168-16-16-16z" />
<glyph unicode="&#xe68e;" d="M243.392 217.216c45.984 0 83.392 37.408 83.392 83.392s-37.408 83.392-83.392 83.392-83.392-37.408-83.392-83.392c0-45.984 37.408-83.392 83.392-83.392zM243.392 352c28.32 0 51.392-23.040 51.392-51.392s-23.040-51.392-51.392-51.392-51.392 23.072-51.392 51.392 23.040 51.392 51.392 51.392zM231.744-23.328c2.688-2.976 5.28-4.896 7.776-6.24 0.032-0.032 0.096-0.032 0.128-0.064 1.728-0.896 3.424-1.568 5.024-1.568s3.296 0.672 5.024 1.568c0.032 0.032 0.096 0.032 0.128 0.064 2.496 1.344 5.088 3.264 7.776 6.24 0 0 148.736 161.76 163.68 301.92 0.896 7.232 1.504 14.56 1.504 22.016 0 99.072-80.32 179.392-179.392 179.392s-179.392-80.32-179.392-179.392c0-7.584 0.608-14.976 1.536-22.304 15.328-140.096 166.208-301.632 166.208-301.632zM243.392 448c81.28 0 147.392-66.112 147.392-147.392 0-5.408-0.384-11.168-1.312-18.624-11.456-107.392-112.288-233.408-144.768-271.744-33.312 38.4-135.584 164.096-147.424 272-0.864 7.072-1.28 12.896-1.28 18.368 0 81.28 66.112 147.392 147.392 147.392z" />
</font>
</defs>
</svg>
