<svg viewBox="0 0 145 295" xmlns="http://www.w3.org/2000/svg"><circle cx="10" cy="10" r="10"/><circle cx="35" cy="10" fill="#2a2a2a" r="10"/><circle cx="60" cy="10" fill="#555" r="10"/><circle cx="85" cy="10" fill="#7f7f7f" r="10"/><circle cx="110" cy="10" fill="#aaa" r="10"/><circle cx="135" cy="10" fill="#d4d4d4" r="10"/><circle cx="10" cy="35" fill="#c03" r="10"/><circle cx="35" cy="35" fill="#d42a55" r="10"/><circle cx="60" cy="35" fill="#d57" r="10"/><circle cx="85" cy="35" fill="#e57f99" r="10"/><circle cx="110" cy="35" fill="#eab" r="10"/><circle cx="135" cy="35" fill="#f6d4dd" r="10"/><circle cx="10" cy="60" fill="#f60" r="10"/><circle cx="35" cy="60" fill="#ff7f2a" r="10"/><circle cx="60" cy="60" fill="#f95" r="10"/><circle cx="85" cy="60" fill="#ffb27f" r="10"/><circle cx="110" cy="60" fill="#fca" r="10"/><circle cx="135" cy="60" fill="#ffe5d4" r="10"/><circle cx="10" cy="85" fill="#fdc710" r="10"/><circle cx="35" cy="85" fill="#fdd037" r="10"/><circle cx="60" cy="85" fill="#fdd95f" r="10"/><circle cx="85" cy="85" fill="#fee387" r="10"/><circle cx="110" cy="85" fill="#feecaf" r="10"/><circle cx="135" cy="85" fill="#fef5d7" r="10"/><circle cx="10" cy="110" fill="#cc0" r="10"/><circle cx="35" cy="110" fill="#d4d42a" r="10"/><circle cx="60" cy="110" fill="#dd5" r="10"/><circle cx="85" cy="110" fill="#e5e57f" r="10"/><circle cx="110" cy="110" fill="#eea" r="10"/><circle cx="135" cy="110" fill="#f6f6d4" r="10"/><circle cx="10" cy="135" fill="#393" r="10"/><circle cx="35" cy="135" fill="#5a5" r="10"/><circle cx="60" cy="135" fill="#7b7" r="10"/><circle cx="85" cy="135" fill="#9c9" r="10"/><circle cx="110" cy="135" fill="#bdb" r="10"/><circle cx="135" cy="135" fill="#ded" r="10"/><circle cx="10" cy="160" fill="#399" r="10"/><circle cx="35" cy="160" fill="#5aa" r="10"/><circle cx="60" cy="160" fill="#7bb" r="10"/><circle cx="85" cy="160" fill="#9cc" r="10"/><circle cx="110" cy="160" fill="#bdd" r="10"/><circle cx="135" cy="160" fill="#dee" r="10"/><circle cx="10" cy="185" fill="#14acde" r="10"/><circle cx="35" cy="185" fill="#3bb9e3" r="10"/><circle cx="60" cy="185" fill="#62c7e9" r="10"/><circle cx="85" cy="185" fill="#89d5ee" r="10"/><circle cx="110" cy="185" fill="#b0e3f4" r="10"/><circle cx="135" cy="185" fill="#d7f1f9" r="10"/><circle cx="10" cy="210" fill="#06c" r="10"/><circle cx="35" cy="210" fill="#2a7fd4" r="10"/><circle cx="60" cy="210" fill="#59d" r="10"/><circle cx="85" cy="210" fill="#7fb2e5" r="10"/><circle cx="110" cy="210" fill="#ace" r="10"/><circle cx="135" cy="210" fill="#d4e5f6" r="10"/><circle cx="10" cy="235" fill="#639" r="10"/><circle cx="35" cy="235" fill="#7f55aa" r="10"/><circle cx="60" cy="235" fill="#97b" r="10"/><circle cx="85" cy="235" fill="#b299cc" r="10"/><circle cx="110" cy="235" fill="#cbd" r="10"/><circle cx="135" cy="235" fill="#e5ddee" r="10"/><circle cx="10" cy="260" fill="#906" r="10"/><circle cx="35" cy="260" fill="#aa2a7f" r="10"/><circle cx="60" cy="260" fill="#b59" r="10"/><circle cx="85" cy="260" fill="#cc7fb2" r="10"/><circle cx="110" cy="260" fill="#dac" r="10"/><circle cx="135" cy="260" fill="#eed4e5" r="10"/><circle cx="10" cy="285" fill="#c06" r="10"/><circle cx="35" cy="285" fill="#d42a7f" r="10"/><circle cx="60" cy="285" fill="#d59" r="10"/><circle cx="85" cy="285" fill="#e57fb2" r="10"/><circle cx="110" cy="285" fill="#eac" r="10"/><circle cx="135" cy="285" fill="#f6d4e5" r="10"/></svg>