<svg viewBox="0 0 455.03 380.45" xmlns="http://www.w3.org/2000/svg"><g transform="translate(-8.56 -16.44)"><path d="m74.78 94.76h-15.41l-39.62-38.47v38.47h-11.19v-77.86h11.19v35.62l32.77-35.62h13.92l-33.9 36.87z"/><path d="m155.16 94.76h-11.42l-10.39-23h-33.11l-9.81 23h-11.43l33.45-78.32h7.88zm-50.58-33h24.21l-12.56-28.2z"/><path d="m236 94.76h-9.6l-52.06-59.94v59.94h-10.5v-77.86h8.9l52.75 60.28v-60.28h10.51z"/><path d="m249.23 16.9h22.61c16.78 0 24 10.05 24 19.86 0 8.11-3.77 13.36-11.87 16.67v.23c11.64 2.17 18.72 9.82 18.72 20.32 0 9.59-7.19 20.78-26.71 20.78h-26.75zm11.19 33.34h7.42c11.08 0 16.44-4.12 16.44-12.45 0-5.79-3.28-10.79-13.58-10.79h-10.28zm0 34.47h14c13.13 0 16.67-6.5 16.67-12.33 0-7.08-5.48-12.1-17.24-12.1h-13.43z"/><path d="m382.76 94.76h-11.42l-10.34-22.95h-33.16l-9.81 23h-11.42l33.45-78.32h7.88zm-50.58-33h24.21l-12.56-28.2z"/><path d="m463.59 94.76h-9.59l-52.06-59.94v59.94h-10.5v-77.86h8.9l52.75 60.28v-60.28h10.5z"/><path d="m25.08 121h-11.53v8.19h11.53v3.81h-11.53v13.74h-4.25v-29.52h15.78z" fill="#808477"/><path d="m53.79 116.83c9.75 0 15.9 6.93 15.9 15.16 0 8-6 15.17-16 15.17-9.69 0-15.76-7.16-15.76-15.16 0-8.2 6.28-15.17 15.86-15.17zm0 26.43c6.63 0 11.53-4.81 11.53-11.27s-4.9-11.26-11.53-11.26-11.48 4.76-11.48 11.27a11.08 11.08 0 0 0 11.48 11.26z" fill="#808477"/><path d="m92.05 117.22c6 0 9.71 3.16 9.71 8.27a7.4 7.4 0 0 1 -4.94 7.24c2.68 1.78 4.33 4.51 6.58 8.19 1.26 2 2 3 4 5.85h-5.07l-3.9-6.07c-3.9-6.06-5.67-6.76-7.84-6.76h-1.75v12.83h-4.24v-29.55zm-3.21 12.91h2.73c4.55 0 5.85-2.34 5.81-4.81 0-2.77-1.69-4.46-5.81-4.46h-2.73z" fill="#808477"/><path d="m172.1 147h-.83l-9.7-24.18-9.8 24.18h-.77l-12-29.81h4.25l8.14 20.36 8.19-20.36h4l8.24 20.36 8.06-20.36h4.2z" fill="#808477"/><path d="m210 116.83c9.75 0 15.91 6.93 15.91 15.16 0 8-6 15.17-16 15.17-9.66 0-15.77-7.15-15.77-15.17.03-8.19 6.31-15.16 15.86-15.16zm0 26.43c6.63 0 11.53-4.81 11.53-11.27s-4.9-11.26-11.53-11.26-11.48 4.76-11.48 11.26a11.08 11.08 0 0 0 11.48 11.27z" fill="#808477"/><path d="m248.29 117.22c6 0 9.71 3.16 9.71 8.27a7.4 7.4 0 0 1 -4.94 7.24c2.68 1.78 4.33 4.51 6.58 8.19 1.26 2 2 3 4 5.85h-5.04l-3.9-6.07c-3.9-6.06-5.67-6.76-7.84-6.76h-1.78v12.83h-4.24v-29.55zm-3.21 12.91h2.73c4.55 0 5.85-2.34 5.81-4.81 0-2.77-1.69-4.46-5.81-4.46h-2.73z" fill="#808477"/><path d="m276.5 117.22h11.5c10.92 0 15.73 7.8 15.73 14.77 0 7.59-5.94 14.78-15.69 14.78h-11.54zm4.25 25.78h6.76c9.62 0 11.83-7.33 11.83-11 0-5.93-3.77-11-12-11h-6.54z" fill="#808477"/><path d="m327.68 117.22c6.46 0 9.41 3.81 9.41 8.49s-3.09 8.29-9.97 8.29h-4.42v12.78h-4.25v-29.56zm-5 12.95h4.81c3.16 0 5.2-1.69 5.2-4.63 0-2.17-1.17-4.51-5-4.51h-5z" fill="#808477"/><path d="m357.67 117.22c6 0 9.71 3.16 9.71 8.27a7.4 7.4 0 0 1 -4.94 7.24c2.68 1.78 4.33 4.51 6.58 8.19 1.26 2 2 3 4 5.85h-5.02l-3.9-6.07c-3.9-6.06-5.67-6.76-7.84-6.76h-1.78v12.83h-4.24v-29.55zm-3.21 12.91h2.73c4.55 0 5.85-2.34 5.81-4.81 0-2.77-1.69-4.46-5.81-4.46h-2.73z" fill="#808477"/><path d="m402.72 121h-12.52v9h12.09v3.81h-12.09v9.19h12.91v3.81h-17.11v-29.59h16.77z" fill="#808477"/><path d="m431.42 123.72a9.9 9.9 0 0 0 -6.93-3.08c-2.73 0-4.68 1.43-4.68 3.51 0 5.68 12.78 5.59 12.78 15a7.91 7.91 0 0 1 -8.28 8 13 13 0 0 1 -8.27-2.73v-5.37c2.16 2.77 4.89 4.29 7.8 4.29 3.29 0 4.81-2.08 4.81-3.73 0-6.11-12.79-6.8-12.79-14.91 0-4.81 3.56-7.88 9-7.88a11.79 11.79 0 0 1 6.59 2.08z" fill="#808477"/><path d="m461.33 123.72a9.9 9.9 0 0 0 -6.93-3.08c-2.73 0-4.68 1.43-4.68 3.51 0 5.68 12.78 5.59 12.78 15a7.91 7.91 0 0 1 -8.28 8 13 13 0 0 1 -8.27-2.73v-5.37c2.16 2.77 4.89 4.29 7.8 4.29 3.29 0 4.81-2.08 4.81-3.73 0-6.11-12.79-6.8-12.79-14.91 0-4.81 3.56-7.88 9-7.88a11.79 11.79 0 0 1 6.59 2.08z" fill="#808477"/><g fill="#90c844"><path d="m359.18 192.6a19 19 0 1 0 19 19 19 19 0 0 0 -19-19z"/><path d="m441.65 192.59a19 19 0 1 0 19 19 19 19 0 0 0 -19-19z"/><path d="m276.71 192.59a19 19 0 1 0 19 19 19 19 0 0 0 -19-19z"/><path d="m194.23 192.6a19 19 0 1 0 19 19 19 19 0 0 0 -19-19z"/><path d="m111.76 192.59a19 19 0 1 0 19 19 19 19 0 0 0 -19-19z"/><path d="m29.28 192.6a19 19 0 1 0 19 19 19 19 0 0 0 -19-19z"/><path d="m359.18 275.74a19 19 0 1 0 19 19 19 19 0 0 0 -19-19z"/><path d="m441.65 275.74a19 19 0 1 0 19 19 19 19 0 0 0 -19-19z"/><path d="m276.71 275.74a19 19 0 1 0 19 19 19 19 0 0 0 -19-19z"/><path d="m194.23 275.74a19 19 0 1 0 19 19 19 19 0 0 0 -19-19z"/><path d="m111.76 275.74a19 19 0 1 0 19 19 19 19 0 0 0 -19-19z"/><path d="m29.28 275.74a19 19 0 1 0 19 19 19 19 0 0 0 -19-19z"/><path d="m359.18 358.89a19 19 0 1 0 19 19 19 19 0 0 0 -19-19z"/><path d="m194.23 358.89a19 19 0 1 0 19 19 19 19 0 0 0 -19-19z"/><path d="m111.76 358.89a19 19 0 1 0 19 19 19 19 0 0 0 -19-19z"/></g></g></svg>